<?xml version="1.0" encoding="utf-8"?>
<!-- Generator: Adobe Illustrator 15.0.2, SVG Export Plug-In . SVG Version: 6.00 Build 0)  -->
<!DOCTYPE svg PUBLIC "-//W3C//DTD SVG 1.1//EN" "http://www.w3.org/Graphics/SVG/1.1/DTD/svg11.dtd">
<svg version="1.1" id="Calque_1" xmlns="http://www.w3.org/2000/svg" xmlns:xlink="http://www.w3.org/1999/xlink" x="0px" y="0px"
	 width="630px" height="590px" viewBox="0 0 630 590" enable-background="new 0 0 630 590" xml:space="preserve">
<g id="Calque_2">
</g>
<g id="Calque_4">
	<g>
		<path fill="#C866A5" d="M557.964,284.391c0,93.244-75.589,168.833-168.833,168.833h-514.003
			c-93.244,0-168.833-75.59-168.833-168.833l0,0c0-93.244,75.589-168.831,168.833-168.831h514.003
			C482.375,115.56,557.964,191.146,557.964,284.391L557.964,284.391z"/>
		<path fill="#A82980" d="M559.464,284.4c0.048,21.929-3.946,43.92-11.892,64.489c-3.975,10.283-8.893,20.223-14.696,29.658
			c-2.902,4.719-6.055,9.286-9.392,13.727c-3.328,4.446-6.876,8.74-10.63,12.859c-14.982,16.499-33.173,30.33-53.521,40.34
			c-20.333,10.022-42.844,16.116-65.846,17.676c-1.438,0.096-2.876,0.174-4.316,0.239l-4.082,0.188l-8.16,0.374l-16.319,0.698
			c-10.881,0.481-21.761,0.866-32.641,1.274l-32.64,1.052l-32.64,0.79c-21.76,0.463-43.52,0.658-65.28,0.932
			c-21.76,0.286-43.52,0.455-65.28,0.56c-21.76,0.106-43.52,0.148-65.28,0.069c-21.76-0.084-43.52-0.161-65.28-0.388l-65.28-0.693
			l-32.64-0.417l-16.32-0.212l-8.16-0.105l-4.17-0.054l-2.04-0.039l-2.279-0.068c-23.562-0.839-46.949-6.228-68.342-15.945
			c-10.704-4.833-20.908-10.727-30.405-17.566c-9.516-6.812-18.316-14.579-26.274-23.094c-7.976-8.501-15.042-17.814-21.179-27.663
			c-6.103-9.874-11.219-20.324-15.276-31.139c-8.155-21.625-11.823-44.758-11.124-67.547c0.329-11.398,1.739-22.745,4.227-33.822
			c2.501-11.074,6.028-21.887,10.544-32.238c9.021-20.712,21.969-39.561,37.831-55.384c7.929-7.917,16.607-15.057,25.838-21.366
			c4.621-3.148,9.397-6.063,14.293-8.756c4.888-2.708,9.906-5.18,15.032-7.402c20.512-8.873,42.683-13.859,65.046-14.652
			l32.755-0.571l32.64-0.783c21.76-0.592,43.52-1.329,65.28-2.136c43.52-1.53,87.04-3.327,130.56-4.235
			c43.52-0.957,87.04-1.266,130.56-0.794c21.76,0.234,43.52,0.661,65.28,1.321c10.88,0.344,21.76,0.658,32.64,1.096l16.32,0.628
			c5.457,0.254,10.795,0.41,16.542,0.746c22.965,1.501,45.431,7.553,65.753,17.515c10.165,4.976,19.796,10.923,28.73,17.706
			c8.97,6.737,17.218,14.341,24.724,22.556c3.75,4.111,7.296,8.396,10.623,12.835c3.334,4.432,6.489,8.99,9.393,13.699
			c5.805,9.417,10.729,19.338,14.719,29.603c7.974,20.536,12.022,42.484,12.053,64.433L559.464,284.4L559.464,284.4z
			 M556.464,284.391c0.052-21.57-4.292-43.151-12.786-62.912c-4.222-9.887-9.476-19.314-15.611-28.087
			c-3.066-4.387-6.321-8.637-9.805-12.685c-3.49-4.041-7.169-7.907-11.019-11.582c-7.692-7.358-16.146-13.861-25.071-19.502
			c-8.961-5.597-18.423-10.298-28.203-14.024c-19.557-7.488-40.401-10.91-60.943-10.423l-32.417,1.272
			c-10.881,0.438-21.761,0.752-32.641,1.096c-21.76,0.661-43.52,1.087-65.28,1.321c-43.52,0.472-87.04,0.162-130.56-0.794
			c-43.52-0.908-87.04-2.705-130.56-4.235c-21.76-0.807-43.52-1.543-65.28-2.136l-32.64-0.783l-16.32-0.282l-8.16-0.141
			l-4.079-0.052c-1.321-0.01-2.643-0.011-3.965,0.005c-21.144,0.223-42.284,4.711-61.651,13.288
			c-4.846,2.13-9.587,4.496-14.203,7.084c-4.607,2.604-9.078,5.447-13.405,8.488c-8.666,6.07-16.688,13.037-23.956,20.693
			c-7.293,7.637-13.737,16.051-19.36,24.94c-5.572,8.925-10.29,18.363-13.976,28.168c-7.442,19.595-10.707,40.574-10.067,61.284
			c0.678,20.729,5.405,41.125,13.716,59.797c4.155,9.336,9.218,18.234,15.056,26.551c5.802,8.344,12.435,16.066,19.658,23.138
			c7.24,7.058,15.14,13.397,23.52,18.963c8.398,5.54,17.288,10.295,26.528,14.166c18.485,7.73,38.41,11.817,58.355,11.992
			l64.95-0.794l65.28-0.694c21.76-0.226,43.52-0.303,65.28-0.387c21.76-0.08,43.52-0.037,65.28,0.069
			c21.76,0.104,43.52,0.273,65.28,0.56c21.76,0.272,43.52,0.468,65.28,0.931l32.64,0.79l32.64,1.053
			c10.88,0.407,21.76,0.792,32.641,1.273l32.399,1.399c20.506,0.545,41.307-2.837,60.853-10.266
			c9.778-3.687,19.217-8.402,28.162-13.99c8.914-5.629,17.357-12.116,25.044-19.459c3.846-3.666,7.522-7.523,11.011-11.558
			c3.48-4.04,6.737-8.278,9.804-12.657c6.138-8.756,11.397-18.164,15.634-28.033c8.521-19.729,12.92-41.266,12.947-62.855
			L556.464,284.391L556.464,284.391z"/>
	</g>
	<rect x="-650" y="3.652" fill="#FFFFFF" width="650" height="586.348"/>
</g>
<g id="Calque_1_1_">
	<circle display="none" fill="none" stroke="#FFFFFF" stroke-width="10" cx="202.594" cy="1995.03" r="134.11"/>
	<circle fill="none" stroke="#FFFFFF" stroke-width="10" cx="391.961" cy="284.383" r="134.11"/>
	<g display="none">
		<ellipse display="inline" fill="#FFFFFF" cx="206.571" cy="2009.39" rx="47.416" ry="34.22"/>
		<path display="inline" fill="#A82980" d="M254.487,2009.398c-0.017,5.474-1.585,10.935-4.331,15.829
			c-2.725,4.916-6.56,9.337-11.114,12.894c-4.558,3.555-9.837,6.213-15.395,7.788c-5.574,1.594-11.328,2.186-17.115,1.87
			c-5.643-0.309-11.324-1.59-16.621-3.49c-5.321-1.909-10.336-4.459-14.985-7.51c-4.632-3.067-8.918-6.743-12.287-11.316
			c-1.676-2.282-3.132-4.778-4.217-7.481c-1.059-2.728-1.793-5.56-2.004-8.642c-0.456-5.867,1.097-12.205,4.3-17.342
			c3.131-5.235,7.659-9.387,12.575-12.649c4.935-3.283,10.38-5.651,16.003-7.247c5.645-1.631,11.424-2.32,17.324-2.272
			c5.706,0.094,11.591,0.923,17.132,2.642c5.562,1.716,10.811,4.481,15.361,8.074c4.549,3.593,8.383,8.03,11.111,12.96
			c2.747,4.915,4.299,10.394,4.262,15.886L254.487,2009.398L254.487,2009.398z M253.487,2009.39
			c-0.004-5.297-2.121-10.443-5.487-14.363c-3.357-3.968-7.79-6.78-12.377-8.827c-4.609-2.062-9.445-3.375-14.293-4.349
			c-4.876-0.976-9.758-1.425-14.808-1.343c-9.755,0.17-19.797,2.108-28.266,6.885c-4.221,2.377-7.959,5.477-10.914,9.138
			c-1.465,1.842-2.701,3.848-3.664,5.993c-0.951,2.174-1.554,4.421-1.788,6.913c-0.46,4.691,0.777,9.848,3.526,14.127
			c2.717,4.323,6.697,7.898,11.203,10.472c4.511,2.602,9.582,4.132,14.669,4.912c5.121,0.791,10.206,0.788,15.318,0.492
			c4.967-0.326,9.979-1.014,14.823-2.112c4.852-1.113,9.658-2.534,14.26-4.634c4.583-2.082,9.015-4.912,12.375-8.894
			c3.368-3.938,5.469-9.104,5.419-14.419v0.009H253.487z"/>
	</g>
	<g display="none">
		<polygon display="inline" fill="#FFFFFF" points="205.012,1944.787 93.036,1977.922 199.292,2021.339 313.548,1969.924 		"/>
		<path display="inline" fill="#A82980" d="M205.031,1945.314c-9.013,3.682-18.118,7.054-27.259,10.305l-6.887,2.447l-6.912,2.361
			c-4.611,1.564-9.215,3.155-13.845,4.655c-9.249,3.038-18.527,5.98-27.836,8.817c-9.297,2.878-18.647,5.576-28.07,8.027
			l0.395-7.877c4.366,1.96,8.708,3.978,13.052,5.989l12.992,6.138c8.659,4.098,17.342,8.136,26.122,11.938
			c8.774,3.813,17.663,7.35,26.571,10.839c8.924,3.448,17.905,6.758,26.931,9.956l-2.068,0.036l13.987-7.082
			c4.657-2.371,9.323-4.724,14.014-7.022c9.366-4.63,18.814-9.078,28.251-13.549l28.35-13.33
			c9.476-4.385,18.983-8.701,28.562-12.856l0.977,9.964c-9.022-2.191-18.025-4.469-27.01-6.818
			c-4.492-1.178-8.995-2.309-13.479-3.523l-13.453-3.638c-8.957-2.476-17.907-4.977-26.828-7.604
			C222.708,1950.88,213.843,1948.211,205.031,1945.314z M205.125,1944.3c9.234,1.276,18.415,2.787,27.581,4.357
			c9.168,1.561,18.307,3.249,27.44,4.963l13.681,2.647c4.562,0.879,9.103,1.843,13.656,2.76c9.104,1.84,18.191,3.752,27.258,5.75
			l15.17,3.344l-14.194,6.62c-9.464,4.413-19,8.666-28.566,12.85l-28.778,12.377c-9.605,4.101-19.2,8.222-28.876,12.16
			c-4.831,1.985-9.687,3.918-14.55,5.831l-14.577,5.771l-1.159,0.459l-0.909-0.424c-8.683-4.037-17.412-7.965-26.197-11.752
			c-8.802-3.748-17.623-7.447-26.558-10.869c-8.93-3.436-17.956-6.633-27.007-9.771l-13.572-4.718
			c-4.511-1.604-9.023-3.206-13.512-4.864l-11.039-4.077l11.435-3.8c9.24-3.07,18.552-5.895,27.918-8.539
			c9.354-2.686,18.739-5.266,28.152-7.75c4.701-1.262,9.429-2.432,14.149-3.628l7.085-1.78l7.11-1.693
			c9.48-2.258,18.997-4.395,28.606-6.215l0.13-0.024L205.125,1944.3z"/>
	</g>
	<g display="none">
		<path display="inline" fill="#A82980" d="M101.076,1981.206c-1.697,1.897-3.34,3.236-4.438,4.554
			c-0.547,0.646-0.934,1.229-1.146,1.726c-0.212,0.502-0.316,0.896-0.411,1.452c-0.2,1.089-0.14,2.892-0.131,4.989
			c-0.014,1.052-0.049,2.188-0.244,3.366c-0.207,1.17-0.527,2.419-1.29,3.48l-2.074-2.763c-0.635-0.875-1.214-1.771-1.733-2.759
			c-0.521-0.986-0.95-2.069-1.252-3.299c-0.293-1.228-0.433-2.637-0.18-4.165c0.24-1.52,0.959-3.123,2.026-4.292
			c1.054-1.188,2.323-1.957,3.563-2.41C96.273,1980.219,98.696,1980.281,101.076,1981.206z"/>
	</g>
	<g display="none">
		<ellipse display="inline" fill="#FFFFFF" cx="92.273" cy="2027.817" rx="7.236" ry="18.28"/>
		<path display="inline" fill="#A82980" d="M99.859,2027.818c-0.021,1.759,0.074,3.521,0.228,5.34
			c0.152,1.815,0.362,3.697,0.293,5.637c-0.08,1.933-0.422,3.917-1.445,5.854c-0.519,0.966-1.197,1.932-2.238,2.812
			c-1.041,0.859-2.527,1.684-4.519,1.555l-0.534-0.074c-0.256-0.047-0.435-0.094-0.644-0.158c-0.402-0.126-0.777-0.29-1.115-0.479
			c-0.667-0.393-1.197-0.852-1.608-1.338c-0.825-0.971-1.295-1.958-1.66-2.92c-0.7-1.93-1.01-3.759-1.389-5.543
			c-0.712-3.567-1.422-7.031-2.108-10.696c-0.319-1.8-0.564-3.677-0.579-5.558c-0.023-1.887,0.2-3.779,0.586-5.694
			c0.4-1.916,0.927-3.863,2-5.856c0.543-0.998,1.23-2.013,2.311-2.993c1.094-0.946,2.654-1.938,4.954-1.904l0.164,0.012l0.432,0.039
			c0.302,0.039,0.504,0.078,0.75,0.139c0.47,0.114,0.912,0.275,1.313,0.466c0.804,0.377,1.441,0.868,1.959,1.36
			c1.038,0.996,1.681,2.018,2.171,3.024c0.964,2.017,1.229,4.03,1.289,5.976c0.047,1.949-0.172,3.836-0.327,5.654
			C99.985,2024.29,99.875,2026.056,99.859,2027.818z M99.159,2027.816c-0.018-1.736-0.319-3.472-0.889-5.125
			c-0.568-1.654-1.409-3.223-2.286-4.647c-0.87-1.422-1.808-2.729-2.627-3.729c-0.407-0.489-0.812-0.898-1.093-1.06
			c-0.139-0.082-0.233-0.088-0.226-0.073c0.002,0.012,0.028,0.032,0.071,0.052c0.033,0.008,0.019,0.016,0.104,0.027
			c0.03,0.009,0.142,0.012,0.105,0.011l-0.164,0.002l0.211,0.01l0.081-0.011c0.048-0.01,0.081-0.021,0.091-0.024
			c0.018-0.008-0.038,0.034-0.158,0.119c-0.237,0.174-0.599,0.589-0.953,1.088c-0.71,1.023-1.386,2.396-1.916,3.849
			c-0.539,1.46-0.938,3.021-1.374,4.607c-0.425,1.595-0.862,3.218-1.183,4.916c-0.67,3.325-0.662,6.886,0.454,10.08
			c0.552,1.583,1.444,3.074,2.528,4.161c0.533,0.536,1.11,0.978,1.604,1.163c0.246,0.09,0.446,0.128,0.577,0.098
			c0.062-0.01,0.104-0.035,0.128-0.063c0.002-0.015,0.042-0.028,0.002-0.05c-0.01-0.011-0.084-0.016-0.044-0.021l0.165-0.016
			c-0.186-0.004-0.051-0.003-0.093-0.005v-0.002v-0.006l-0.001-0.009l-0.002-0.021l-0.004-0.04c-0.001-0.024,0.008-0.041,0.03-0.07
			c0.04-0.067,0.146-0.146,0.281-0.289c0.278-0.274,0.648-0.737,1.027-1.271c0.761-1.08,1.622-2.418,2.471-3.853
			c0.856-1.438,1.688-3.009,2.253-4.665C98.892,2031.292,99.178,2029.557,99.159,2027.816z"/>
	</g>
	<g display="none">
		<ellipse display="inline" fill="#FFFFFF" cx="91.892" cy="2008.395" rx="12.187" ry="9.521"/>
		<path display="inline" fill="#A82980" d="M104.429,2008.406c-0.025,1.466-0.256,2.977-0.756,4.509
			c-0.493,1.533-1.285,3.104-2.429,4.438c-1.142,1.328-2.628,2.38-4.268,2.955c-1.664,0.577-3.34,0.746-5.143,0.524
			c-0.178-0.028-0.355-0.062-0.533-0.103l-0.647-0.135c-0.442-0.114-0.829-0.219-1.233-0.375c-0.796-0.293-1.562-0.639-2.288-1.041
			c-1.453-0.811-2.748-1.755-3.964-2.735c-1.21-0.99-2.353-2.062-3.307-3.381c-0.941-1.337-1.759-2.812-2.07-4.733
			c-0.33-1.66-0.113-3.75,0.669-5.458c0.769-1.753,2.051-3.18,3.468-4.323c1.426-1.146,3.028-2.033,4.725-2.611
			c0.845-0.299,1.718-0.498,2.595-0.64c0.438-0.082,0.881-0.104,1.322-0.137l0.662-0.03l0.331-0.005l0.405,0.008l0.534,0.036
			l0.69,0.062c0.48,0.046,0.887,0.116,1.328,0.213c0.865,0.179,1.72,0.416,2.539,0.759c1.643,0.671,3.105,1.8,4.241,3.155
			c1.14,1.359,1.93,2.942,2.425,4.484c0.499,1.548,0.72,3.062,0.706,4.552v0.012H104.429z M103.729,2008.395
			c-0.013-1.367-0.642-2.685-1.621-3.573c-0.978-0.906-2.261-1.376-3.459-1.641c-1.211-0.269-2.376-0.342-3.473-0.462
			c-0.552-0.052-1.097-0.105-1.644-0.122c-0.264-0.01-0.569-0.002-0.8-0.007l-0.913,0.021c-2.013,0.12-4.292,0.419-6.123,1.379
			c-0.922,0.479-1.712,1.104-2.417,1.8c-0.695,0.729-1.33,1.469-1.659,2.667c-0.314,0.936-0.281,2.289,0.256,3.392
			c0.518,1.131,1.449,2.11,2.578,2.743c1.13,0.644,2.462,0.901,3.749,0.882c0.646-0.009,1.278-0.062,1.895-0.16
			c0.301-0.051,0.625-0.093,0.894-0.155l0.42-0.078c0.179-0.032,0.358-0.062,0.537-0.081c1.05-0.23,2.227-0.442,3.305-0.651
			c1.1-0.215,2.241-0.365,3.447-0.661c1.195-0.287,2.476-0.77,3.456-1.686c0.978-0.905,1.599-2.224,1.572-3.615V2008.395z"/>
	</g>
	<g>
		<g>
			<path fill="#A82980" d="M451.129,296.739c-20.915-9.473-42.635-16.791-64.662-21.509c-22.014-4.712-44.361-6.749-66.161-5.481
				c-21.795,1.241-42.975,5.854-62.521,13.724c-19.572,7.84-37.477,18.884-53.438,32.216c-9.79,8.178-24.356,6.871-32.534-2.92
				c-8.178-9.789-6.871-24.355,2.919-32.534c0.977-0.815,2-1.537,3.061-2.165l0.456-0.262c21.704-12.654,45.332-22.149,69.65-27.39
				c24.31-5.296,49.152-6.324,73.099-3.66c23.978,2.642,47.07,8.839,68.821,17.471C411.58,272.877,432.075,283.919,451.129,296.739z
				"/>
			<g>
				<polygon fill="#A82980" points="169.06,228.983 109.961,353.245 247.132,342.301 				"/>
			</g>
		</g>
	</g>
</g>
</svg>
