<?xml version="1.0" encoding="utf-8"?>
<!-- Generator: Adobe Illustrator 15.0.2, SVG Export Plug-In . SVG Version: 6.00 Build 0)  -->
<!DOCTYPE svg PUBLIC "-//W3C//DTD SVG 1.1//EN" "http://www.w3.org/Graphics/SVG/1.1/DTD/svg11.dtd">
<svg version="1.1" id="Calque_1" xmlns="http://www.w3.org/2000/svg" xmlns:xlink="http://www.w3.org/1999/xlink" x="0px" y="0px"
	 width="490px" height="540px" viewBox="0 0 490 540" enable-background="new 0 0 490 540" xml:space="preserve">
<g id="Calque_2">
</g>
<g id="Calque_4">
	<g>
		<path fill="#C866A5" d="M461.949,256.235c0,93.244-75.589,168.834-168.833,168.834h-514.003
			c-93.244,0-168.833-75.591-168.833-168.834l0,0c0-93.244,75.589-168.831,168.833-168.831h514.003
			C386.359,87.404,461.949,162.991,461.949,256.235L461.949,256.235z"/>
		<path fill="#A82980" d="M463.449,256.245c0.048,21.929-3.946,43.921-11.894,64.489c-3.974,10.281-8.892,20.223-14.694,29.656
			c-2.902,4.719-6.057,9.286-9.394,13.727c-3.328,4.447-6.876,8.74-10.629,12.859c-14.981,16.5-33.173,30.33-53.521,40.342
			c-20.333,10.021-42.846,16.113-65.848,17.675c-1.438,0.097-2.875,0.174-4.314,0.24l-4.082,0.188l-8.16,0.374l-16.32,0.699
			c-10.88,0.479-21.76,0.866-32.64,1.271l-32.64,1.055l-32.64,0.789c-21.76,0.463-43.52,0.656-65.28,0.932
			c-21.76,0.285-43.52,0.455-65.28,0.56c-21.76,0.106-43.52,0.148-65.28,0.069c-21.76-0.084-43.52-0.162-65.28-0.388l-65.28-0.694
			l-32.64-0.417l-16.32-0.212l-8.16-0.105l-4.17-0.054l-2.04-0.039l-2.279-0.065c-23.562-0.84-46.949-6.229-68.342-15.947
			c-10.704-4.832-20.908-10.727-30.405-17.564c-9.516-6.812-18.316-14.578-26.274-23.096c-7.976-8.501-15.042-17.812-21.179-27.662
			c-6.103-9.875-11.219-20.322-15.276-31.14c-8.155-21.624-11.823-44.761-11.124-67.547c0.329-11.397,1.739-22.745,4.227-33.822
			c2.501-11.073,6.028-21.887,10.544-32.238c9.021-20.712,21.969-39.562,37.831-55.384c7.929-7.917,16.607-15.057,25.838-21.365
			c4.621-3.148,9.397-6.063,14.293-8.756c4.888-2.709,9.906-5.181,15.032-7.402c20.512-8.873,42.683-13.859,65.046-14.652
			l32.755-0.57l32.64-0.783c21.76-0.592,43.52-1.329,65.28-2.136c43.52-1.53,87.04-3.327,130.56-4.235
			c43.52-0.956,87.04-1.266,130.56-0.794c21.76,0.233,43.52,0.661,65.28,1.321c10.88,0.344,21.76,0.658,32.64,1.096l16.32,0.628
			c5.457,0.254,10.795,0.409,16.542,0.745c22.965,1.502,45.431,7.554,65.753,17.516c10.165,4.976,19.796,10.923,28.729,17.705
			c8.971,6.738,17.219,14.342,24.725,22.557c3.75,4.111,7.296,8.396,10.623,12.835c3.334,4.432,6.489,8.99,9.392,13.698
			c5.807,9.418,10.729,19.339,14.719,29.604c7.976,20.535,12.023,42.484,12.055,64.433L463.449,256.245L463.449,256.245z
			 M460.449,256.235c0.052-21.57-4.292-43.151-12.786-62.912c-4.222-9.888-9.478-19.313-15.612-28.087
			c-3.064-4.388-6.319-8.637-9.804-12.686c-3.49-4.041-7.169-7.906-11.021-11.581c-7.69-7.358-16.145-13.861-25.069-19.502
			c-8.961-5.597-18.423-10.298-28.203-14.024c-19.558-7.488-40.402-10.91-60.944-10.423l-32.417,1.272
			c-10.88,0.438-21.76,0.752-32.64,1.096c-21.76,0.66-43.52,1.088-65.28,1.321c-43.52,0.472-87.04,0.162-130.56-0.794
			c-43.52-0.908-87.04-2.705-130.56-4.235c-21.76-0.807-43.52-1.544-65.28-2.136l-32.64-0.783l-16.32-0.282l-8.16-0.142
			l-4.079-0.051c-1.321-0.011-2.643-0.012-3.965,0.005c-21.144,0.223-42.284,4.711-61.651,13.288
			c-4.846,2.129-9.587,4.495-14.203,7.084c-4.607,2.604-9.078,5.447-13.405,8.488c-8.666,6.07-16.688,13.037-23.956,20.693
			c-7.293,7.637-13.737,16.051-19.36,24.939c-5.572,8.926-10.29,18.363-13.976,28.168c-7.442,19.596-10.707,40.574-10.067,61.284
			c0.678,20.729,5.405,41.126,13.716,59.798c4.155,9.336,9.218,18.234,15.056,26.551c5.802,8.344,12.435,16.066,19.658,23.139
			c7.24,7.057,15.14,13.396,23.52,18.963c8.398,5.539,17.288,10.295,26.528,14.166c18.485,7.729,38.41,11.816,58.355,11.991
			l64.95-0.794l65.28-0.693c21.76-0.227,43.52-0.305,65.28-0.389c21.76-0.078,43.52-0.037,65.28,0.069
			c21.76,0.104,43.52,0.274,65.28,0.56c21.76,0.273,43.52,0.469,65.28,0.932l32.64,0.789l32.64,1.055
			c10.88,0.406,21.76,0.792,32.64,1.271l32.4,1.399c20.506,0.545,41.306-2.837,60.852-10.265
			c9.779-3.688,19.217-8.403,28.162-13.991c8.915-5.63,17.358-12.116,25.044-19.458c3.848-3.667,7.523-7.525,11.011-11.559
			c3.481-4.039,6.737-8.278,9.806-12.656c6.137-8.756,11.396-18.164,15.634-28.033c8.521-19.729,12.92-41.268,12.947-62.856V256.235
			L460.449,256.235z"/>
	</g>
	<rect x="-646.002" y="-43.256" fill="#FFFFFF" width="650" height="632"/>
</g>
<g id="Calque_1_1_">
	<circle fill="none" stroke="#FFFFFF" stroke-width="10" cx="295.945" cy="256.228" r="134.11"/>
	<g>
		<polygon fill="#A82980" points="336.305,219.018 300.307,261.059 266.305,219.018 266.305,107.018 336.305,107.018 		"/>
		<path fill="#A82980" d="M336.836,219.473c-2.577,3.865-5.245,7.654-7.931,11.425c-2.671,3.786-5.411,7.511-8.154,11.235
			c-2.754,3.713-5.521,7.416-8.325,11.088c-2.784,3.688-5.627,7.326-8.451,10.979l-3.432,4.439l-3.993-4.544
			c-2.977-3.387-5.981-6.752-8.922-10.168c-2.963-3.398-5.907-6.812-8.823-10.25c-2.938-3.418-5.83-6.874-8.728-10.326
			c-2.911-3.441-5.763-6.929-8.636-10.4l-1.346-1.625l-0.048-2.309c-0.188-9.334,0.132-18.666,0.912-28
			c0.781-9.334,1.874-18.666,2.544-28c0.319-4.666,0.534-9.334,0.641-14c0.065-4.666,0.078-9.334-0.043-14
			c-0.179-9.333-0.844-18.666-1.631-28l-0.294-3.473l4.125-0.359c5.835-0.508,11.669-1.001,17.5-1.441l8.75-0.572
			c2.919-0.153,5.833-0.297,8.75-0.399l17.5-0.614c5.833-0.199,11.667-0.395,17.5-0.514l7.215-0.146l0.158,7.52
			c0.196,9.334,0.203,18.667-0.023,28c-0.254,9.334-0.617,18.666-1.146,28c-0.54,9.334-1.202,18.666-2.093,28
			c-0.91,9.334-1.919,18.666-3.409,28l-0.043,0.267L336.836,219.473z M335.569,218.757c-1.469-9.246-2.473-18.493-3.373-27.739
			c-0.893-9.334-1.555-18.666-2.093-28c-0.53-9.334-0.894-18.666-1.146-28c-0.228-9.333-0.221-18.666-0.025-28l7.373,7.373
			c-5.833-0.119-11.667-0.314-17.5-0.514l-17.5-0.614c-2.917-0.103-5.832-0.246-8.75-0.399l-8.75-0.572
			c-5.832-0.44-11.666-0.934-17.5-1.441l3.834-3.832c-0.789,9.334-1.455,18.667-1.633,28c-0.121,4.666-0.109,9.334-0.042,14
			c0.104,4.666,0.32,9.334,0.64,14c0.67,9.334,1.764,18.666,2.543,28c0.781,9.334,1.102,18.666,0.912,28l-1.391-3.934
			c2.794,3.535,5.607,7.055,8.365,10.62c2.77,3.555,5.544,7.106,8.273,10.694c2.75,3.57,5.474,7.162,8.178,10.771
			c2.725,3.59,5.388,7.231,8.078,10.852l-7.424-0.104c3.176-3.353,6.331-6.722,9.548-10.04c3.194-3.336,6.429-6.641,9.674-9.934
			c3.257-3.283,6.516-6.564,9.845-9.785C328.951,224.988,332.219,221.838,335.569,218.757z"/>
	</g>
	<g>
		<circle fill="#FFFFFF" cx="301.305" cy="304.744" r="50"/>
		<path fill="#A82980" d="M352.004,304.753c-0.048,6.614-0.935,13.267-2.86,19.808c-0.97,3.267-2.174,6.521-3.716,9.668
			c-1.551,3.142-3.41,6.188-5.609,9.028c-4.405,5.663-10.261,10.423-16.997,13.427c-3.359,1.515-6.918,2.598-10.543,3.256
			c-1.814,0.322-3.645,0.562-5.479,0.65c-0.917,0.051-1.834,0.086-2.75,0.085l-1.374-0.028l-1.442-0.062l-1.228-0.098l-1.42-0.15
			c-0.918-0.115-1.812-0.247-2.709-0.4c-1.789-0.344-3.562-0.74-5.289-1.279c-3.46-1.053-6.782-2.443-9.897-4.137
			c-6.236-3.4-11.666-7.828-16.334-12.819c-9.317-9.991-15.541-22.774-16.881-37.001c-0.646-6.93,0.06-14.35,2.426-21.246
			c2.336-6.934,6.326-13.322,11.373-18.739c5.047-5.421,11.207-9.909,18.088-12.942c3.43-1.537,7.043-2.671,10.73-3.439
			c1.844-0.4,3.715-0.639,5.585-0.824c0.938-0.088,1.875-0.15,2.813-0.196l1.406-0.047l1.504,0.008l1.227,0.042l1.481,0.078
			c0.952,0.066,1.876,0.149,2.812,0.258c1.866,0.205,3.716,0.545,5.542,0.969c3.652,0.844,7.219,2.045,10.578,3.66
			c6.734,3.209,12.534,8.097,16.913,13.82c2.192,2.866,4.038,5.938,5.588,9.088c1.54,3.16,2.743,6.426,3.71,9.699
			c1.917,6.562,2.784,13.229,2.753,19.859V304.753L352.004,304.753z M350.605,304.744c-0.027-6.459-1.731-12.887-4.842-18.415
			c-1.539-2.772-3.44-5.306-5.543-7.584c-2.09-2.29-4.42-4.3-6.854-6.063c-4.877-3.536-10.16-6.077-15.523-7.877
			c-2.688-0.891-5.417-1.596-8.185-2.021c-1.384-0.211-2.776-0.348-4.168-0.46c-0.692-0.05-1.403-0.082-2.083-0.102l-0.973-0.012
			l-1.228,0.011l-1.997,0.082c-0.696,0.04-1.39,0.091-2.083,0.161c-1.386,0.133-2.756,0.371-4.125,0.605
			c-2.733,0.502-5.415,1.275-8.03,2.246c-5.217,1.975-10.141,4.914-14.349,8.751c-4.213,3.839-7.649,8.533-10.323,13.697
			c-2.658,5.193-4.525,10.866-5.168,17.028c-0.628,5.946-0.023,12.341,2.141,18.187c2.131,5.864,5.67,11.274,10.271,15.523
			c4.587,4.27,10.241,7.27,16.103,8.877c2.93,0.812,5.901,1.329,8.862,1.546c1.482,0.099,2.952,0.177,4.423,0.152
			c0.729,0.002,1.47-0.015,2.186-0.046l2.261-0.127c-0.125-0.002,0.004-0.004-0.006-0.006l0.067-0.006l0.137-0.014l0.271-0.021
			l0.542-0.047l1.08-0.119c0.718-0.086,1.436-0.166,2.146-0.272c1.421-0.228,2.834-0.467,4.229-0.778
			c2.796-0.611,5.532-1.435,8.22-2.43c5.359-2.005,10.59-4.674,15.438-8.27c2.427-1.791,4.743-3.823,6.832-6.125
			c2.098-2.291,4-4.834,5.537-7.614c3.101-5.552,4.786-11.99,4.731-18.468v0.01H350.605z"/>
	</g>
	<polygon opacity="0.55" fill="#C866A5" enable-background="new    " points="318.666,264.744 340.876,274.198 274.697,347.068 
		260.365,333.432 	"/>
	<polygon opacity="0.55" fill="#C866A5" enable-background="new    " points="345.999,284.744 350.494,286.658 294.379,356.877 
		287.698,353.432 	"/>
	<polygon opacity="0.55" fill="#C866A5" enable-background="new    " points="311.999,255.41 316.494,257.324 260.379,327.543 
		253.698,324.098 	"/>
</g>
</svg>
