<?xml version="1.0" encoding="utf-8"?>
<!-- Generator: Adobe Illustrator 15.0.2, SVG Export Plug-In . SVG Version: 6.00 Build 0)  -->
<!DOCTYPE svg PUBLIC "-//W3C//DTD SVG 1.1//EN" "http://www.w3.org/Graphics/SVG/1.1/DTD/svg11.dtd">
<svg version="1.1" id="Calque_1" xmlns="http://www.w3.org/2000/svg" xmlns:xlink="http://www.w3.org/1999/xlink" x="0px" y="0px"
	 width="696.691px" height="1541.691px" viewBox="0 0 696.691 1541.691" enable-background="new 0 0 696.691 1541.691"
	 xml:space="preserve">
<g id="Calque_2">
</g>
<g id="Calque_4">
	<g>
		<g>
			<path fill="#C866A5" d="M496.619,1051.72c8.982-6.312,17.354-13.473,24.95-21.362c15.179-15.787,27.344-34.399,35.525-54.633
				c8.209-20.215,12.427-42.014,12.41-63.796c0.043-21.79-4.152-43.595-12.352-63.823c-8.173-20.245-20.337-38.874-35.521-54.672
				c-7.598-7.896-15.973-15.061-24.959-21.38c-8.973-6.34-18.573-11.824-28.63-16.339c-11.503-5.174-23.603-9.062-36.004-11.601
				c12.385-2.526,24.474-6.404,35.962-11.568c10.051-4.51,19.647-9.987,28.617-16.321c8.982-6.313,17.354-13.473,24.949-21.362
				c15.179-15.787,27.345-34.399,35.525-54.633c8.209-20.215,12.427-42.014,12.41-63.796c0.043-21.79-4.152-43.595-12.352-63.823
				c-8.173-20.245-20.337-38.873-35.521-54.672c-7.598-7.896-15.972-15.061-24.958-21.381c-8.973-6.34-18.574-11.822-28.629-16.339
				c-20.11-9.044-42.038-14.182-64.224-14.991c-2.801-0.104-5.499-0.124-8.214-0.173l-8.145-0.132l-16.29-0.264l-32.579-0.451
				l-32.579-0.409l-32.579-0.287c-43.439-0.298-86.878-0.447-130.316-0.545c-43.438-0.059-86.877-0.061-130.316,0.127l-65.158,0.243
				l-65.266,0.348c-22.363,0.557-44.634,5.409-65.113,14.369c-20.479,8.937-39.216,21.826-54.73,37.834
				c-7.769,7.988-14.761,16.722-20.842,26.039c-6.065,9.329-11.207,19.246-15.331,29.559c-8.269,20.612-12.352,42.861-12.089,64.928
				c0.213,22.147,4.822,44.129,13.402,64.423c4.289,10.145,9.581,19.851,15.742,28.953c6.139,9.119,13.161,17.634,20.928,25.395
				c15.55,15.498,33.987,28.097,54.181,36.688c10.091,4.295,20.579,7.657,31.298,9.981c0.982,0.213,1.969,0.406,2.955,0.603
				c-12.196,2.409-24.132,6.115-35.513,11.096c-20.48,8.936-39.216,21.825-54.73,37.834c-7.77,7.987-14.762,16.72-20.843,26.038
				c-6.065,9.329-11.206,19.246-15.33,29.56c-8.269,20.622-12.352,42.843-12.089,64.945c0.213,22.11,4.823,44.118,13.402,64.404
				c4.289,10.144,9.581,19.85,15.743,28.952c6.138,9.119,13.161,17.635,20.928,25.395c15.549,15.498,33.987,28.098,54.18,36.689
				c10.091,4.294,20.58,7.656,31.298,9.98c0.825,0.178,1.653,0.339,2.481,0.505c-12.032,2.412-23.807,6.082-35.041,10.998
				c-20.479,8.937-39.216,21.825-54.73,37.834c-7.769,7.988-14.761,16.721-20.842,26.039c-6.065,9.328-11.207,19.246-15.331,29.559
				c-8.269,20.622-12.351,42.843-12.089,64.945c0.213,22.111,4.823,44.119,13.403,64.404c4.289,10.146,9.581,19.851,15.742,28.953
				c6.139,9.119,13.161,17.634,20.928,25.396c15.55,15.496,33.987,28.096,54.181,36.688c10.091,4.295,20.579,7.657,31.298,9.982
				c10.723,2.312,21.654,3.631,32.63,3.899l65.191,0.523l65.158,0.778l65.158,0.86l65.158,0.683
				c43.438,0.338,86.877,0.479,130.316,0.298l32.579-0.181l32.579-0.301l32.579-0.412l16.29-0.239l8.146-0.12
				c2.704-0.045,5.429-0.061,8.218-0.16c22.15-0.788,44.081-5.904,64.177-14.938c10.051-4.511,19.647-9.988,28.616-16.322
				c8.982-6.313,17.354-13.474,24.95-21.362c15.178-15.788,27.344-34.4,35.524-54.634c8.209-20.215,12.428-42.014,12.41-63.796
				c0.043-21.79-4.152-43.595-12.352-63.824c-8.172-20.244-20.337-38.873-35.521-54.671c-7.597-7.896-15.972-15.061-24.958-21.38
				c-8.973-6.34-18.574-11.824-28.63-16.339c-11.35-5.104-23.279-8.963-35.506-11.503c12.212-2.529,24.13-6.377,35.465-11.472
				C478.054,1063.532,487.65,1058.054,496.619,1051.72z"/>
		</g>
		<g>
			<path fill="#A82980" d="M495.752,1050.495c27.015-18.885,48.214-45.911,60.108-76.571c5.968-15.305,9.592-31.514,10.779-47.857
				c1.196-16.348-0.065-32.853-3.667-48.77c-3.562-15.935-9.623-31.251-17.69-45.343c-8.059-14.106-18.265-26.938-29.961-38.055
				c-5.854-5.56-12.139-10.648-18.733-15.264c-1.657-1.159-3.3-2.257-5.036-3.396c-1.643-1.069-3.376-2.146-5.089-3.176
				c-3.446-2.063-6.962-4.002-10.542-5.809c-3.572-1.801-7.24-3.486-10.896-5.006c-1.972-0.825-3.69-1.493-5.601-2.214
				c-1.874-0.695-3.754-1.369-5.65-1.994c-7.578-2.53-15.335-4.485-23.175-5.896l0.006-14.067
				c14.809-3.411,29.06-8.85,42.261-16.144c6.595-3.637,12.941-7.739,18.935-12.228c6.079-4.522,11.736-9.408,17.085-14.656
				c1.332-1.312,2.648-2.641,3.93-4l1.876-2.011l1.923-2.14c2.444-2.762,4.847-5.677,7.115-8.626
				c4.559-5.915,8.688-12.142,12.398-18.585c7.417-12.89,12.953-26.777,16.521-41.111c1.789-7.167,3.072-14.454,3.842-21.784
				c0.384-3.665,0.645-7.341,0.77-11.019c0.065-1.839,0.1-3.678,0.096-5.516l-0.019-2.756l-0.062-2.831
				c-0.449-14.601-2.937-29.277-7.372-43.209c-4.413-13.949-10.786-27.271-18.839-39.474c-4.037-6.1-8.462-11.945-13.275-17.451
				c-2.418-2.771-4.87-5.393-7.524-8.043c-1.202-1.21-2.577-2.528-3.889-3.76c-1.333-1.246-2.691-2.464-4.064-3.667
				c-5.508-4.807-11.34-9.18-17.464-13.237c-6.089-4.017-12.46-7.609-19.043-10.748c-13.16-6.301-27.2-10.751-41.592-13.272
				c-7.199-1.245-14.471-2.022-21.777-2.285l-23.554-0.556l-47.463-1.057l-189.928-4.07l-95.012-1.781l-47.512-0.714l-47.523-0.602
				l-47.513-0.417l-11.881-0.083l-5.94-0.041l-2.97-0.021l-0.372-0.002c-0.061-0.002-0.388,0-0.231-0.005l-0.742,0.014l-1.479,0.029
				c-7.61,0.178-15.316,0.939-22.883,2.187c-15.161,2.515-30.001,7.051-43.906,13.686c-13.907,6.605-26.951,15.094-38.541,25.254
				c-11.563,10.164-21.769,21.982-30.098,34.938c-8.317,12.961-14.806,27.176-19.184,41.917
				c-4.407,14.771-6.629,30.186-6.727,45.581c-0.129,15.418,1.968,30.809,6.158,45.611c2.088,7.404,4.69,14.642,7.797,21.687
				c3.092,7.003,6.725,13.806,10.785,20.31c8.143,13.041,18.024,24.916,29.416,35.15c11.371,10.263,24.117,18.975,37.794,25.7
				c3.406,1.682,6.917,3.254,10.389,4.67c1.883,0.769,3.536,1.4,5.357,2.079c1.79,0.655,3.587,1.287,5.395,1.886
				c7.231,2.39,14.623,4.271,22.087,5.611l-0.003,13.929c-18.417,3.936-36.047,11.038-51.989,20.871
				c-7.971,4.904-15.506,10.489-22.486,16.666c-3.495,3.084-6.845,6.322-10.045,9.693l-2.421,2.597l-2.296,2.571
				c-1.531,1.754-3.024,3.538-4.479,5.352c-2.912,3.627-5.664,7.377-8.248,11.233c-0.65,0.962-1.282,1.936-1.908,2.911l-0.9,1.424
				l-0.963,1.561c-1.148,1.896-2.341,3.956-3.446,5.971c-4.464,8.119-8.218,16.609-11.225,25.344
				c-5.994,17.447-8.892,35.938-8.585,54.293c0.29,18.387,3.736,36.629,10.169,53.735c3.214,8.55,7.145,16.794,11.771,24.648
				c1.156,1.962,2.354,3.899,3.593,5.812l1.888,2.848l1.994,2.876c2.569,3.623,5.402,7.287,8.323,10.74
				c11.711,13.889,25.881,25.768,41.507,34.956c7.818,4.617,15.961,8.508,24.464,11.705c8.489,3.19,17.241,5.694,26.09,7.379
				l-0.001,26.501c-7.152,1.495-14.197,3.458-21.053,5.904c-3.428,1.224-6.812,2.559-10.135,4.02l-2.559,1.143l-2.421,1.136
				c-1.646,0.78-3.271,1.604-4.889,2.44c-12.92,6.735-24.916,15.229-35.464,25.181c-1.315,1.245-2.618,2.506-3.887,3.798
				l-1.858,1.911l-1.947,2.071c-2.409,2.601-4.821,5.402-7.086,8.214c-4.546,5.646-8.731,11.64-12.411,17.816
				c-7.417,12.436-13.099,25.909-16.767,39.861c-3.681,13.957-5.391,28.479-5.094,42.847c0.271,14.5,2.607,28.801,6.845,42.584
				c4.244,13.766,10.394,26.869,18.254,38.924c7.879,12.12,17.342,23.024,28.199,32.485c10.856,9.468,22.944,17.505,35.865,23.674
				c12.932,6.156,26.813,10.596,40.92,13.008c7.091,1.214,14.253,1.971,21.423,2.239l1.345,0.042l0.336,0.011
				c-0.004,0.001,0.483,0.013,0.076,0.005l0.742,0.006l2.968,0.023l5.937,0.047l11.872,0.094l47.551,0.447
				c31.64,0.441,63.338,0.901,94.989,1.484l94.925,1.646l94.817,1.188l47.416,0.483l47.444,0.412l47.429,0.312l23.582,0.129
				c7.384-0.038,14.769-0.585,22.102-1.648c14.665-2.138,29.081-6.214,42.719-12.301c13.587-6.042,26.477-14.031,38.048-23.61
				c23.127-19.155,41.095-45,50.735-73.908c4.833-14.449,7.627-29.644,8.276-44.969c0.636-15.352-0.86-30.803-4.511-45.809
				c-1.844-7.504-4.204-14.848-7.1-22.065c-2.865-7.149-6.259-14.163-10.129-20.883c-7.779-13.427-17.426-25.829-28.595-36.689
				c-11.208-10.821-23.95-20.125-37.73-27.505c-13.806-7.373-28.624-12.802-43.96-16.074l0.001-3.431
				c11.38-2.276,22.524-5.755,33.199-10.329c5.359-2.293,10.541-4.862,15.623-7.702
				C486.074,1056.931,490.999,1053.835,495.752,1050.495z M497.483,1052.945c-4.825,3.419-9.825,6.59-14.976,9.498
				c-5.139,2.903-10.47,5.556-15.867,7.928c-10.838,4.754-22.171,8.37-33.748,10.857l0.001-3.431
				c15.664,3.158,30.952,8.462,45.213,15.742c7.14,3.634,14.032,7.781,20.611,12.358c6.599,4.566,12.889,9.59,18.81,15.027
				c11.863,10.861,22.228,23.374,30.74,37.093c4.274,6.856,8.075,13.986,11.373,21.417c3.274,7.36,6.062,15.026,8.283,22.822
				c4.495,15.591,6.801,31.88,6.82,48.184c0.083,16.328-2.13,32.711-6.588,48.527c-8.855,31.688-26.862,60.862-51.391,83.396
				c-3.065,2.812-6.23,5.521-9.485,8.123l-2.476,1.938l-2.453,1.859c-1.691,1.255-3.367,2.477-5.09,3.664
				c-6.864,4.766-14.053,9.054-21.558,12.831c-14.945,7.532-31.028,13.021-47.578,16.16c-8.275,1.578-16.683,2.58-25.122,3
				l-6.095,0.244l-5.939,0.22l-11.868,0.409l-23.762,0.781l-11.869,0.382l-11.914,0.332l-23.739,0.61l-23.792,0.515l-47.562,0.755
				c-31.717,0.372-63.381,0.479-95.142,0.405l-47.49-0.196l-23.788-0.121l-23.744-0.196l-94.957-0.872l-47.425-0.346l-11.872-0.098
				l-5.936-0.048l-2.968-0.023l-0.742-0.007l-1.071-0.026l-1.622-0.052c-8.649-0.316-17.265-1.241-25.768-2.749
				c-8.495-1.491-16.973-3.605-25.176-6.261c-8.23-2.665-16.233-5.853-24.068-9.632c-15.615-7.549-30.112-17.249-42.991-28.73
				c-12.915-11.452-24.271-24.8-33.512-39.313c-9.312-14.543-16.593-30.453-21.451-47.014c-4.876-16.534-7.458-33.822-7.57-50.983
				c-0.15-17.286,2.112-34.484,6.734-51.082c4.614-16.606,11.581-32.496,20.581-47.129c4.525-7.36,9.527-14.308,14.997-20.919
				c2.748-3.312,5.544-6.477,8.558-9.643l2.148-2.227c0.826-0.832,1.525-1.551,2.311-2.313c1.526-1.511,3.088-2.982,4.666-4.438
				c12.646-11.603,26.876-21.375,42.135-29.066c1.911-0.954,3.83-1.895,5.771-2.783l2.974-1.343l2.879-1.238
				c3.946-1.67,7.951-3.188,11.997-4.568c8.093-2.763,16.364-4.943,24.729-6.573l-0.001,26.501
				c-10.397-2.143-20.531-5.224-30.349-9.085c-9.805-3.858-19.362-8.605-28.352-14.111c-17.98-11.062-34.041-25.081-47.294-41.476
				c-3.313-4.121-6.394-8.297-9.393-12.751l-2.121-3.224c-0.709-1.105-1.413-2.216-2.1-3.336c-1.375-2.239-2.704-4.508-3.983-6.803
				c-5.112-9.18-9.441-18.814-12.844-28.738c-6.831-19.824-10.22-40.819-9.854-61.679c0.313-20.887,4.257-41.637,11.631-61.087
				c7.343-19.417,18.139-37.521,31.604-53.157c26.844-31.433,64.565-52.958,104.809-60.169l-0.003,13.929
				c-8.081-1.708-16.003-4.023-23.74-6.812c-1.934-0.7-3.854-1.435-5.764-2.192c-1.87-0.754-3.893-1.597-5.655-2.374
				c-3.818-1.68-7.492-3.45-11.139-5.374c-14.541-7.68-27.977-17.325-39.869-28.565c-11.903-11.242-22.244-24.144-30.622-38.133
				c-4.204-7.011-7.896-14.297-11.097-21.83c-3.183-7.492-5.851-15.235-7.955-23.105c-4.204-15.744-6.233-32.074-5.994-48.338
				c0.228-16.282,2.753-32.503,7.407-48.091c4.677-15.618,11.553-30.47,20.333-44.179c8.798-13.695,19.447-26.122,31.6-36.96
				c24.281-21.658,54.612-36.481,86.725-42.361c8.036-1.48,16.118-2.397,24.337-2.816l1.49-0.065l0.742-0.032l0.883-0.016
				l2.97-0.053l5.939-0.104l11.879-0.209l47.527-0.912l95.046-1.991l95.071-1.821c31.708-0.534,63.385-1.03,95.088-1.362
				l47.568-0.37l23.81-0.064l23.762,0.037c15.888,0.031,31.659,0.158,47.567,0.278l11.881,0.103c4,0.052,7.803,0.061,12.079,0.162
				c8.525,0.228,17.053,1.036,25.469,2.455c16.834,2.818,33.292,7.997,48.719,15.353c7.711,3.687,15.161,7.911,22.287,12.629
				c7.081,4.687,13.901,9.902,20.301,15.546c1.599,1.417,3.179,2.853,4.73,4.319c1.564,1.489,3.043,2.918,4.622,4.527
				c2.922,2.975,5.853,6.171,8.605,9.396c5.537,6.483,10.647,13.332,15.232,20.521c9.205,14.365,16.349,30.037,21.165,46.396
				c4.797,16.375,7.259,33.304,7.29,50.38l-0.019,3.108l-0.074,3.185c-0.064,2.122-0.175,4.241-0.318,6.356
				c-0.285,4.231-0.725,8.45-1.305,12.646c-1.163,8.392-2.908,16.69-5.228,24.822c-4.64,16.268-11.649,31.806-20.589,46.049
				c-4.463,7.125-9.453,13.896-14.849,20.304c-2.708,3.21-5.485,6.293-8.432,9.335l-2.148,2.186
				c-0.814,0.81-1.505,1.496-2.277,2.234c-1.503,1.457-3.041,2.876-4.593,4.275c-6.204,5.589-12.857,10.731-19.718,15.347
				c-6.927,4.678-14.133,8.847-21.6,12.502c-14.915,7.313-30.833,12.498-47.067,15.409l0.004-14.067
				c8.433,1.939,16.719,4.457,24.763,7.578c2.014,0.772,4.007,1.597,5.989,2.442c1.941,0.837,4.05,1.781,5.869,2.65
				c3.932,1.858,7.728,3.83,11.478,5.951c14.973,8.478,28.61,19.083,40.523,31.342c11.903,12.268,21.922,26.229,29.852,41.248
				c7.924,15.03,13.535,31.205,16.799,47.787c6.482,33.19,3.136,68.06-9.523,99.188c-12.598,31.127-34.312,58.43-61.739,77.674
				L497.483,1052.945z"/>
		</g>
	</g>
	<rect x="-650" y="-40.348" fill="#FFFFFF" width="650" height="1580.005"/>
</g>
<g id="Calque_1_1_">
	<circle display="none" fill="none" stroke="#FFFFFF" stroke-width="10" cx="202.594" cy="238.683" r="134.11"/>
	<g display="none">
		<ellipse display="inline" fill="#FFFFFF" cx="206.571" cy="253.042" rx="47.416" ry="34.22"/>
		<path display="inline" fill="#A82980" d="M254.487,253.051c-0.017,5.474-1.585,10.935-4.331,15.83
			c-2.725,4.916-6.56,9.336-11.114,12.893c-4.558,3.555-9.837,6.213-15.395,7.788c-5.574,1.594-11.328,2.186-17.115,1.87
			c-5.643-0.308-11.324-1.589-16.621-3.49c-5.321-1.909-10.336-4.459-14.985-7.51c-4.632-3.067-8.918-6.743-12.287-11.316
			c-1.676-2.282-3.132-4.778-4.217-7.481c-1.059-2.728-1.793-5.56-2.004-8.642c-0.456-5.867,1.097-12.205,4.3-17.342
			c3.131-5.235,7.659-9.387,12.575-12.649c4.935-3.283,10.38-5.652,16.003-7.247c5.645-1.631,11.424-2.321,17.324-2.273
			c5.706,0.094,11.591,0.923,17.132,2.642c5.562,1.716,10.811,4.481,15.361,8.074c4.549,3.593,8.383,8.03,11.111,12.96
			c2.747,4.915,4.299,10.394,4.262,15.886L254.487,253.051L254.487,253.051z M253.487,253.042
			c-0.004-5.297-2.121-10.444-5.487-14.364c-3.357-3.967-7.79-6.78-12.377-8.827c-4.609-2.061-9.445-3.375-14.293-4.348
			c-4.876-0.976-9.758-1.425-14.808-1.343c-9.755,0.17-19.797,2.108-28.266,6.885c-4.221,2.377-7.959,5.476-10.914,9.137
			c-1.465,1.842-2.701,3.848-3.664,5.994c-0.951,2.173-1.554,4.42-1.788,6.913c-0.46,4.691,0.777,9.847,3.526,14.127
			c2.717,4.323,6.697,7.898,11.203,10.471c4.511,2.602,9.582,4.132,14.669,4.912c5.121,0.792,10.206,0.789,15.318,0.493
			c4.967-0.327,9.979-1.014,14.823-2.113c4.852-1.113,9.658-2.534,14.26-4.633c4.583-2.082,9.015-4.912,12.375-8.894
			c3.368-3.938,5.469-9.104,5.419-14.419v0.009H253.487z"/>
	</g>
	<g display="none">
		<polygon display="inline" fill="#FFFFFF" points="205.012,188.439 93.036,221.574 199.292,264.991 313.548,213.576 		"/>
		<path display="inline" fill="#A82980" d="M205.031,188.967c-9.013,3.682-18.118,7.054-27.259,10.305l-6.887,2.447l-6.912,2.362
			c-4.611,1.564-9.215,3.155-13.845,4.655c-9.249,3.038-18.527,5.98-27.836,8.817c-9.297,2.878-18.647,5.576-28.07,8.028
			l0.395-7.877c4.366,1.96,8.708,3.977,13.052,5.989l12.992,6.138c8.659,4.097,17.342,8.135,26.122,11.937
			c8.774,3.814,17.663,7.35,26.571,10.839c8.924,3.448,17.905,6.758,26.931,9.956l-2.068,0.036l13.987-7.082
			c4.657-2.371,9.323-4.724,14.014-7.022c9.366-4.63,18.814-9.078,28.251-13.549l28.35-13.33
			c9.476-4.385,18.983-8.701,28.562-12.857l0.977,9.964c-9.022-2.191-18.025-4.469-27.01-6.818
			c-4.492-1.178-8.995-2.309-13.479-3.524l-13.453-3.637c-8.957-2.476-17.907-4.977-26.828-7.605
			C222.708,194.532,213.843,191.863,205.031,188.967z M205.125,187.952c9.234,1.276,18.415,2.787,27.581,4.357
			c9.168,1.561,18.307,3.249,27.44,4.963l13.681,2.647c4.562,0.879,9.103,1.843,13.656,2.76c9.104,1.84,18.191,3.752,27.258,5.75
			l15.17,3.344l-14.194,6.62c-9.464,4.413-19,8.666-28.566,12.85l-28.778,12.377c-9.605,4.1-19.2,8.221-28.876,12.16
			c-4.831,1.985-9.687,3.918-14.55,5.831l-14.577,5.771l-1.159,0.459l-0.909-0.423c-8.683-4.038-17.412-7.965-26.197-11.752
			c-8.802-3.748-17.623-7.448-26.558-10.87c-8.93-3.435-17.956-6.632-27.007-9.771l-13.572-4.718
			c-4.511-1.604-9.023-3.206-13.512-4.864l-11.039-4.077l11.435-3.8c9.24-3.07,18.552-5.895,27.918-8.539
			c9.354-2.686,18.739-5.266,28.152-7.75c4.701-1.262,9.429-2.432,14.149-3.628l7.085-1.78l7.11-1.694
			c9.48-2.257,18.997-4.394,28.606-6.215l0.13-0.024L205.125,187.952z"/>
	</g>
	<g display="none">
		<path display="inline" fill="#A82980" d="M101.076,224.858c-1.697,1.898-3.34,3.236-4.438,4.554
			c-0.547,0.646-0.934,1.228-1.146,1.725c-0.212,0.502-0.316,0.897-0.411,1.453c-0.2,1.088-0.14,2.891-0.131,4.989
			c-0.014,1.052-0.049,2.187-0.244,3.366c-0.207,1.17-0.527,2.419-1.29,3.481l-2.074-2.763c-0.635-0.875-1.214-1.771-1.733-2.759
			c-0.521-0.986-0.95-2.069-1.252-3.299c-0.293-1.227-0.433-2.637-0.18-4.165c0.24-1.519,0.959-3.123,2.026-4.292
			c1.054-1.187,2.323-1.957,3.563-2.41C96.273,223.871,98.696,223.934,101.076,224.858z"/>
	</g>
	<g display="none">
		<ellipse display="inline" fill="#FFFFFF" cx="92.273" cy="271.47" rx="7.236" ry="18.28"/>
		<path display="inline" fill="#A82980" d="M99.859,271.471c-0.021,1.759,0.074,3.522,0.228,5.34
			c0.152,1.816,0.362,3.698,0.293,5.637c-0.08,1.933-0.422,3.917-1.445,5.854c-0.519,0.965-1.197,1.931-2.238,2.812
			c-1.041,0.859-2.527,1.684-4.519,1.555l-0.534-0.074c-0.256-0.047-0.435-0.094-0.644-0.159c-0.402-0.126-0.777-0.29-1.115-0.479
			c-0.667-0.393-1.197-0.852-1.608-1.338c-0.825-0.971-1.295-1.958-1.66-2.92c-0.7-1.93-1.01-3.759-1.389-5.543
			c-0.712-3.567-1.422-7.031-2.108-10.696c-0.319-1.8-0.564-3.677-0.579-5.558c-0.023-1.887,0.2-3.779,0.586-5.694
			c0.4-1.916,0.927-3.864,2-5.857c0.543-0.998,1.23-2.012,2.311-2.993c1.094-0.946,2.654-1.937,4.954-1.904l0.164,0.012l0.432,0.039
			c0.302,0.039,0.504,0.078,0.75,0.139c0.47,0.114,0.912,0.275,1.313,0.465c0.804,0.377,1.441,0.868,1.959,1.361
			c1.038,0.996,1.681,2.017,2.171,3.024c0.964,2.017,1.229,4.03,1.289,5.976c0.047,1.949-0.172,3.836-0.327,5.654
			C99.985,267.942,99.875,269.708,99.859,271.471z M99.159,271.469c-0.018-1.736-0.319-3.471-0.889-5.125
			c-0.568-1.654-1.409-3.222-2.286-4.646c-0.87-1.422-1.808-2.73-2.627-3.73c-0.407-0.489-0.812-0.898-1.093-1.059
			c-0.139-0.082-0.233-0.088-0.226-0.073c0.002,0.011,0.028,0.032,0.071,0.051c0.033,0.008,0.019,0.016,0.104,0.028
			c0.03,0.008,0.142,0.011,0.105,0.01l-0.164,0.002l0.211,0.01l0.081-0.011c0.048-0.009,0.081-0.021,0.091-0.024
			c0.018-0.008-0.038,0.034-0.158,0.119c-0.237,0.174-0.599,0.589-0.953,1.088c-0.71,1.023-1.386,2.397-1.916,3.849
			c-0.539,1.46-0.938,3.021-1.374,4.607c-0.425,1.595-0.862,3.218-1.183,4.916c-0.67,3.325-0.662,6.886,0.454,10.08
			c0.552,1.583,1.444,3.074,2.528,4.161c0.533,0.536,1.11,0.978,1.604,1.163c0.246,0.09,0.446,0.128,0.577,0.098
			c0.062-0.01,0.104-0.035,0.128-0.063c0.002-0.015,0.042-0.029,0.002-0.05c-0.01-0.011-0.084-0.016-0.044-0.021l0.165-0.015
			c-0.186-0.004-0.051-0.003-0.093-0.005v-0.002v-0.006l-0.001-0.009l-0.002-0.021l-0.004-0.04c-0.001-0.025,0.008-0.041,0.03-0.071
			c0.04-0.067,0.146-0.146,0.281-0.289c0.278-0.274,0.648-0.737,1.027-1.27c0.761-1.08,1.622-2.418,2.471-3.853
			c0.856-1.437,1.688-3.008,2.253-4.665C98.892,274.944,99.178,273.209,99.159,271.469z"/>
	</g>
	<g display="none">
		<ellipse display="inline" fill="#FFFFFF" cx="91.892" cy="252.047" rx="12.187" ry="9.521"/>
		<path display="inline" fill="#A82980" d="M104.429,252.059c-0.025,1.466-0.256,2.977-0.756,4.509
			c-0.493,1.533-1.285,3.104-2.429,4.438c-1.142,1.329-2.628,2.38-4.268,2.956c-1.664,0.577-3.34,0.746-5.143,0.524
			c-0.178-0.028-0.355-0.062-0.533-0.103l-0.647-0.134c-0.442-0.115-0.829-0.219-1.233-0.375c-0.796-0.293-1.562-0.639-2.288-1.041
			c-1.453-0.811-2.748-1.755-3.964-2.736c-1.21-0.99-2.353-2.062-3.307-3.381c-0.941-1.336-1.759-2.811-2.07-4.733
			c-0.33-1.66-0.113-3.75,0.669-5.458c0.769-1.753,2.051-3.18,3.468-4.323c1.426-1.146,3.028-2.033,4.725-2.612
			c0.845-0.298,1.718-0.498,2.595-0.639c0.438-0.082,0.881-0.104,1.322-0.137l0.662-0.03l0.331-0.005l0.405,0.008l0.534,0.036
			l0.69,0.061c0.48,0.046,0.887,0.117,1.328,0.213c0.865,0.179,1.72,0.416,2.539,0.759c1.643,0.671,3.105,1.8,4.241,3.155
			c1.14,1.36,1.93,2.943,2.425,4.485c0.499,1.548,0.72,3.062,0.706,4.551v0.012H104.429z M103.729,252.047
			c-0.013-1.368-0.642-2.685-1.621-3.574c-0.978-0.906-2.261-1.376-3.459-1.64c-1.211-0.269-2.376-0.342-3.473-0.462
			c-0.552-0.052-1.097-0.106-1.644-0.122c-0.264-0.01-0.569-0.002-0.8-0.007l-0.913,0.02c-2.013,0.12-4.292,0.419-6.123,1.379
			c-0.922,0.479-1.712,1.104-2.417,1.8c-0.695,0.729-1.33,1.469-1.659,2.667c-0.314,0.935-0.281,2.289,0.256,3.391
			c0.518,1.131,1.449,2.111,2.578,2.744c1.13,0.643,2.462,0.901,3.749,0.882c0.646-0.009,1.278-0.062,1.895-0.161
			c0.301-0.05,0.625-0.092,0.894-0.155l0.42-0.078c0.179-0.032,0.358-0.061,0.537-0.081c1.05-0.231,2.227-0.442,3.305-0.651
			c1.1-0.215,2.241-0.366,3.447-0.661c1.195-0.288,2.476-0.77,3.456-1.686c0.978-0.905,1.599-2.224,1.572-3.615V252.047z"/>
	</g>
	<circle fill="none" stroke="#FFFFFF" stroke-width="10" cx="397.584" cy="574.167" r="134.11"/>
	<g>
		<polygon fill="#FFFFFF" points="410.312,559.41 365.478,667.236 466.148,612.091 498.226,490.976 		"/>
		<path fill="#A82980" d="M410.734,559.729c-2.821,9.317-5.94,18.514-9.177,27.658l-2.439,6.891l-2.521,6.855
			c-1.69,4.566-3.356,9.145-5.109,13.685c-3.471,9.097-7.032,18.153-10.695,27.17c-3.624,9.032-7.421,17.993-11.455,26.854
			l-5.867-5.271c4.273-2.154,8.575-4.256,12.875-6.36l12.952-6.221c8.638-4.143,17.245-8.339,25.729-12.76
			c8.49-4.41,16.837-9.083,25.158-13.803c8.303-4.756,16.53-9.644,24.702-14.638l-1.274,1.629l3.314-15.323
			c1.095-5.109,2.208-10.216,3.378-15.307c2.308-10.189,4.808-20.328,7.283-30.474l7.514-30.412
			c2.567-10.121,5.206-20.225,8.017-30.28l8.352,5.521c-7.387,5.625-14.828,11.18-22.314,16.676
			c-3.745,2.745-7.461,5.528-11.23,8.244l-11.3,8.153c-7.567,5.395-15.148,10.77-22.812,16.038
			C426.194,549.509,418.536,554.711,410.734,559.729z M410.005,559.016c6.811-6.365,13.769-12.542,20.763-18.67
			c6.989-6.136,14.061-12.167,21.146-18.179l10.678-8.954c3.558-2.988,7.167-5.907,10.748-8.864
			c7.165-5.909,14.375-11.761,21.642-17.542l12.155-9.672l-3.805,15.193c-2.536,10.129-5.244,20.213-8.023,30.277l-8.523,30.146
			c-2.87,10.041-5.716,20.088-8.755,30.084c-1.502,5.002-3.062,9.989-4.642,14.972l-4.704,14.956l-0.374,1.188l-0.901,0.439
			c-8.607,4.197-17.156,8.5-25.633,12.936c-8.457,4.474-16.89,8.99-25.177,13.771c-8.293,4.771-16.464,9.765-24.604,14.812
			l-12.215,7.564c-4.088,2.491-8.176,4.985-12.292,7.427l-10.123,6.003l4.256-11.272c3.438-9.109,7.114-18.12,10.962-27.06
			c3.81-8.955,7.72-17.868,11.723-26.742c1.983-4.445,4.055-8.854,6.1-13.272l3.083-6.623l3.165-6.588
			c4.221-8.783,8.56-17.52,13.199-26.129l0.063-0.116L410.005,559.016z"/>
	</g>
	<g>
		<polygon fill="#FFFFFF" points="395.646,550.744 350.812,658.57 451.482,603.425 483.559,482.31 		"/>
		<path fill="#A82980" d="M396.067,551.062c-2.821,9.316-5.94,18.513-9.177,27.657l-2.439,6.891l-2.521,6.855
			c-1.69,4.566-3.356,9.145-5.109,13.685c-3.471,9.097-7.032,18.153-10.695,27.17c-3.624,9.031-7.421,17.993-11.455,26.854
			l-5.867-5.271c4.273-2.154,8.575-4.256,12.875-6.36l12.952-6.221c8.638-4.143,17.245-8.339,25.729-12.76
			c8.49-4.41,16.837-9.083,25.158-13.803c8.303-4.756,16.53-9.644,24.702-14.638l-1.274,1.629l3.314-15.323
			c1.094-5.109,2.208-10.216,3.378-15.307c2.308-10.189,4.808-20.328,7.283-30.474l7.514-30.412
			c2.567-10.121,5.206-20.225,8.017-30.28l8.352,5.521c-7.387,5.625-14.828,11.18-22.314,16.676
			c-3.745,2.745-7.461,5.528-11.23,8.244l-11.3,8.153c-7.567,5.395-15.148,10.77-22.812,16.038
			C411.528,540.843,403.87,546.045,396.067,551.062z M395.339,550.35c6.811-6.365,13.769-12.542,20.763-18.67
			c6.989-6.136,14.061-12.167,21.146-18.179l10.678-8.954c3.558-2.988,7.167-5.907,10.748-8.864
			c7.165-5.909,14.375-11.761,21.642-17.542l12.155-9.672l-3.805,15.193c-2.536,10.129-5.244,20.213-8.023,30.277l-8.523,30.146
			c-2.87,10.041-5.716,20.088-8.755,30.084c-1.502,5.002-3.062,9.989-4.642,14.972l-4.704,14.956l-0.374,1.188l-0.901,0.439
			c-8.607,4.197-17.156,8.5-25.633,12.936c-8.457,4.474-16.89,8.99-25.177,13.771c-8.293,4.771-16.464,9.765-24.604,14.812
			l-12.215,7.564c-4.088,2.491-8.176,4.985-12.292,7.427l-10.123,6.003l4.256-11.272c3.438-9.109,7.114-18.12,10.962-27.06
			c3.81-8.955,7.72-17.868,11.723-26.742c1.983-4.445,4.055-8.854,6.1-13.272l3.083-6.623l3.165-6.588
			c4.221-8.783,8.56-17.52,13.199-26.129l0.063-0.116L395.339,550.35z"/>
	</g>
	<g>
		<polygon fill="#FFFFFF" points="334.979,563.41 290.145,671.236 390.815,616.091 422.892,494.976 		"/>
		<path fill="#A82980" d="M335.4,563.729c-2.821,9.317-5.94,18.514-9.177,27.658l-2.439,6.891l-2.521,6.855
			c-1.69,4.566-3.356,9.145-5.109,13.685c-3.471,9.097-7.032,18.153-10.695,27.17c-3.624,9.032-7.421,17.993-11.455,26.854
			l-5.867-5.271c4.273-2.154,8.575-4.256,12.875-6.36l12.952-6.221c8.638-4.143,17.245-8.339,25.729-12.76
			c8.49-4.41,16.837-9.083,25.158-13.803c8.303-4.756,16.53-9.644,24.702-14.638l-1.274,1.629l3.314-15.323
			c1.095-5.109,2.208-10.216,3.378-15.307c2.308-10.189,4.808-20.328,7.283-30.474l7.514-30.412
			c2.567-10.121,5.206-20.225,8.017-30.28l8.352,5.521c-7.387,5.625-14.828,11.18-22.314,16.676
			c-3.745,2.745-7.461,5.528-11.23,8.244l-11.3,8.153c-7.567,5.395-15.148,10.77-22.812,16.038
			C350.861,553.509,343.203,558.711,335.4,563.729z M334.672,563.016c6.811-6.365,13.769-12.542,20.763-18.67
			c6.989-6.136,14.061-12.167,21.146-18.179l10.678-8.954c3.558-2.988,7.167-5.907,10.748-8.864
			c7.165-5.909,14.375-11.761,21.641-17.542l12.156-9.672l-3.805,15.193c-2.536,10.129-5.244,20.213-8.023,30.277l-8.523,30.146
			c-2.87,10.041-5.716,20.088-8.755,30.084c-1.502,5.002-3.062,9.989-4.642,14.972l-4.704,14.956l-0.374,1.188l-0.901,0.439
			c-8.607,4.197-17.156,8.5-25.633,12.936c-8.457,4.474-16.89,8.99-25.177,13.771c-8.293,4.771-16.464,9.765-24.604,14.812
			l-12.215,7.564c-4.088,2.491-8.175,4.985-12.292,7.427l-10.123,6.003l4.256-11.272c3.438-9.109,7.114-18.12,10.962-27.06
			c3.81-8.955,7.72-17.868,11.723-26.742c1.983-4.445,4.055-8.854,6.1-13.272l3.083-6.623l3.165-6.588
			c4.221-8.783,8.56-17.52,13.2-26.129l0.062-0.116L334.672,563.016z"/>
	</g>
	<text transform="matrix(1 0 0 1 351.0684 651.0166)" fill="#A82980" font-family="'Unkempt-Bold'" font-size="269.0715">?</text>
	
		<text transform="matrix(0.8802 0.4745 -0.4745 0.8802 410.4502 657.4805)" fill="#A82980" font-family="'Unkempt-Bold'" font-size="150.5457">?</text>
	
		<text transform="matrix(0.8675 -0.4974 0.4974 0.8675 345.7861 624.5693)" fill="#A82980" font-family="'Unkempt-Bold'" font-size="108.1654">?</text>
	<circle fill="none" stroke="#FFFFFF" stroke-width="10" cx="397.584" cy="914.167" r="134.11"/>
	<g>
		
			<line fill="none" stroke="#A82980" stroke-width="10" stroke-linecap="round" x1="497.956" y1="964.76" x2="289.956" y2="964.76"/>
	</g>
	<g>
		<rect x="375.956" y="847.76" fill="#A82980" width="45" height="108"/>
	</g>
	<g>
		<rect x="315.956" y="901.76" fill="#FFFFFF" width="45" height="54"/>
	</g>
	<g>
		<rect x="435.956" y="872.76" fill="#FFFFFF" width="45" height="83"/>
	</g>
	<circle fill="none" stroke="#FFFFFF" stroke-width="10" cx="397.584" cy="1251.955" r="134.11"/>
	<g>
		<path fill="none" stroke="#A82980" stroke-width="34" stroke-linecap="round" d="M445.956,1284.955c0,22.092-17.909,40-40,40h-50
			c-22.091,0-40-17.908-40-40v-66c0-22.092,17.909-40,40-40h50c22.091,0,40,17.908,40,40V1284.955z"/>
	</g>
	<g>
		<g>
			
				<line fill="none" stroke="#C866A5" stroke-width="56" stroke-linecap="round" x1="380.956" y1="1251.955" x2="481.956" y2="1251.955"/>
			<g>
				<polygon fill="#C866A5" points="457.445,1335.25 602.517,1251.496 457.445,1167.726 				"/>
			</g>
		</g>
		<g>
			
				<line fill="none" stroke="#A82980" stroke-width="34" stroke-linecap="round" x1="380.956" y1="1251.955" x2="481.956" y2="1251.955"/>
			<g>
				<polygon fill="#A82980" points="467.074,1302.526 555.154,1251.676 467.074,1200.814 				"/>
			</g>
		</g>
	</g>
</g>
</svg>
