<svg xmlns="http://www.w3.org/2000/svg" viewBox="0 0 672.5 892.42"><defs><style>.cls-1{fill:#c866a5;}.cls-2{fill:#a82980;}.cls-3,.cls-4,.cls-5{fill:none;}.cls-3{stroke:#fff;stroke-width:10px;}.cls-4{stroke:#a82980;stroke-width:34px;}.cls-4,.cls-5{stroke-linecap:round;}.cls-5{stroke:#c866a5;stroke-width:56px;}.cls-6{fill:#fff;}</style></defs><title>Plan de travail 1</title><g id="Calque_5" data-name="Calque 5"><path class="cls-1" d="M557.15,516.17A172.33,172.33,0,0,0,403.82,408.79c-2.8-.11-5.5-.13-8.21-.17l-8.15-.14-16.29-.26-32.58-.45L306,407.36l-32.57-.29c-7.07-.05-14.14-.07-21.22-.11A169.47,169.47,0,0,0,273,399.22,172.44,172.44,0,0,0,362.1,306.9a170.64,170.64,0,0,0,.06-127.62A172.33,172.33,0,0,0,208.83,71.9c-2.8-.1-5.5-.12-8.21-.17l-8.15-.13-16.29-.27-32.58-.45L111,70.47l-32.58-.28q-65.14-.45-130.31-.55t-130.32.13l-65.15.24-65.27.35a173.73,173.73,0,0,0-65.11,14.37,172.2,172.2,0,0,0-54.73,37.83,172.89,172.89,0,0,0-20.85,26,171.16,171.16,0,0,0-15.33,29.56,169.64,169.64,0,0,0-12.09,64.94,170.21,170.21,0,0,0,13.41,64.41,169.56,169.56,0,0,0,15.74,28.95,170.49,170.49,0,0,0,20.93,25.4,173.06,173.06,0,0,0,54.18,36.68,174.36,174.36,0,0,0,31.3,10,175.43,175.43,0,0,0,32.63,3.9l65.19.52,65.15.78,20.62.27a170.46,170.46,0,0,0-21.16,7.62,172.2,172.2,0,0,0-54.73,37.83,172.89,172.89,0,0,0-20.85,26,171.16,171.16,0,0,0-15.33,29.56A169.64,169.64,0,0,0-285.73,580a170.25,170.25,0,0,0,13.41,64.41,169.56,169.56,0,0,0,15.74,29,171,171,0,0,0,20.93,25.4,173.06,173.06,0,0,0,54.18,36.68,174.36,174.36,0,0,0,31.3,10,175.43,175.43,0,0,0,32.62,3.9l65.2.52,65.15.78,65.16.86,65.16.68q65.16.51,130.32.3l32.58-.18,32.57-.3,32.58-.41,16.29-.24,8.15-.12c2.7-.05,5.43-.06,8.22-.16A172.27,172.27,0,0,0,557.09,643.79a170.64,170.64,0,0,0,.06-127.62Z"/><path class="cls-2" d="M555.76,516.73A166.84,166.84,0,0,0,426.29,414.21,160.62,160.62,0,0,0,405,412.34c-7.17-.08-14.46,0-21.75,0l-43.68.45c-29.13.44-58.24.92-87.35,1.65l-2.12-14.72a164.43,164.43,0,0,0,102.77-101,156.44,156.44,0,0,0,6.29-23.65,161,161,0,0,0-3-72.46,159.38,159.38,0,0,0-19.81-44.11A162.06,162.06,0,0,0,215.93,85.11c-2-.17-4.05-.36-6.08-.47l-1.53-.09-1.59-.06-3.2-.11L190.48,84l-26.31-.82C129.08,82.12,94,80.87,58.91,80L-46.4,77.19c-8.78-.23-17.55-.36-26.33-.54l-26.34-.48-26.33-.44-26.34-.36c-35.1-.53-70.24-.62-105.35-.69l-52.64.17A168.41,168.41,0,0,0-360.21,83a166.74,166.74,0,0,0-45.51,23.09A164.4,164.4,0,0,0-442,141.87a161.52,161.52,0,0,0-23.45,45,161.47,161.47,0,0,0-8.35,49.78,161.52,161.52,0,0,0,29.28,94.47,161.83,161.83,0,0,0,15.83,19.25c2.86,3,5.86,5.86,9,8.63s6.28,5.42,9.57,7.94a160.62,160.62,0,0,0,43.2,23.76,167.82,167.82,0,0,0,23.71,6.66,164.66,164.66,0,0,0,24.4,3l3.06.12,1.54,0,1.46,0,6.52,0,13.16-.08,26.31-.15c35.07-.17,70.27,0,105.39.14l3.58,26.67a158.85,158.85,0,0,0-65.55,38.49,158.11,158.11,0,0,0-23.9,29.76,155.51,155.51,0,0,0-15.87,34.56A155.56,155.56,0,0,0-267.84,605a155.24,155.24,0,0,0,11.28,36.1,153.37,153.37,0,0,0,8.88,16.7c1.65,2.7,3.39,5.32,5.21,7.95s3.68,5.13,5.63,7.61a158.06,158.06,0,0,0,59.16,46.1A159.06,159.06,0,0,0-141.6,730.7,161.17,161.17,0,0,0-122.78,733l2.36.13,2.3.09c.68,0,1.58,0,2.45,0l2.61,0,10.42.12c27.79.31,55.58.64,83.46,1.23l83.53,1.7,41.73.94,41.73,1q41.7.82,83.41,1.92l41.71,1.16,41.74.91,41.73.8,41.71.65,5.13.06c1.68,0,3.34,0,5-.09,3.34-.13,6.68-.32,10-.65A161.08,161.08,0,0,0,438.11,740a163.25,163.25,0,0,0,38-13.45,166.19,166.19,0,0,0,80.66-88.74,160.18,160.18,0,0,0,6.15-19.64c.85-3.33,1.53-6.71,2.17-10.08s1.12-6.79,1.49-10.21a159.53,159.53,0,0,0,1.11-20.62,161.43,161.43,0,0,0-1.43-20.6,166.88,166.88,0,0,0-4-20.29A169.65,169.65,0,0,0,555.76,516.73Zm2.78-1.12a175.44,175.44,0,0,1-15.93,161.84,179.92,179.92,0,0,1-27.33,32.6,181.93,181.93,0,0,1-34.44,25.34,179.08,179.08,0,0,1-39.73,16.53,183,183,0,0,1-21.17,4.59c-3.57.56-7.17,1-10.78,1.33-1.8.17-3.62.3-5.42.43l-5.3.25-41.82,1.85q-20.88.92-41.79,1.7c-13.93.53-27.86,1-41.79,1.43l-41.81,1q-41.82.91-83.66,1.53c-27.86.21-55.73.35-83.58.23l-167.11-.79-10.45-.05h-2.62c-.87,0-1.71,0-2.77,0l-2.92-.1-2.85-.14a195,195,0,0,1-22.62-2.7,187.28,187.28,0,0,1-43.51-13.47,185.19,185.19,0,0,1-39-23.63,195.27,195.27,0,0,1-17-15.12A184.39,184.39,0,0,1-262,693.06c-2.34-3-4.6-6.08-6.74-9.22s-4.18-6.31-6.13-9.58A182.27,182.27,0,0,1-285.33,654a186,186,0,0,1-13.12-43.57,185.88,185.88,0,0,1,6.92-89.84A184.19,184.19,0,0,1-272,479.75,186.34,186.34,0,0,1-243.14,445a181.65,181.65,0,0,1,17.34-14.5,184.35,184.35,0,0,1,18.93-12.27,189.33,189.33,0,0,1,20.24-9.9,183.08,183.08,0,0,1,21.3-7.38l3.58,26.67-105.33-2.27-26.37-.58-13.18-.29-6.65-.16-1.83-.08-1.76-.11c-1.17-.07-2.34-.15-3.5-.25a187.44,187.44,0,0,1-27.72-4.35A181,181,0,0,1-374.77,411a181,181,0,0,1-47.75-28.6A180.07,180.07,0,0,1-459.23,341a178.88,178.88,0,0,1-13.16-24.32,181.34,181.34,0,0,1-9.21-26,177.51,177.51,0,0,1-5.92-54.42,177.2,177.2,0,0,1,10.7-53.41,176.8,176.8,0,0,1,26.28-47.45,179.71,179.71,0,0,1,39.16-37.24A179.88,179.88,0,0,1-363,74.26a179.53,179.53,0,0,1,53.16-8.42l52.72-.4,52.69-.59,52.68-.74c35.13-.48,70.27-1.27,105.4-2L59.05,60.22q26.36-.51,52.73-.77c17.58-.13,35.16-.27,52.73-.28l26.37,0,13.28.06,3.39,0h1.7l1.76.07c2.36.06,4.71.21,7.07.36a184,184,0,0,1,55,12.78,180.93,180.93,0,0,1,25.4,12.63,187.65,187.65,0,0,1,23.12,16.39,181.33,181.33,0,0,1,20.36,19.8A184.33,184.33,0,0,1,359,144,179.88,179.88,0,0,1,254.39,414.16l-2.12-14.72q43.71,1.43,87.39,3.3l43.68,1.72c7.27.28,14.54.5,21.93.9a181.52,181.52,0,0,1,22.06,2.83,178.22,178.22,0,0,1,95.55,52.2A182.55,182.55,0,0,1,537,477.28c2.2,2.93,4.25,6,6.27,9.05s3.9,6.23,5.69,9.44A170.64,170.64,0,0,1,558.54,515.61Z"/><path class="cls-3" d="M531.69,584.72A134.11,134.11,0,1,1,397.58,450.61,134.11,134.11,0,0,1,531.69,584.72Z"/><rect class="cls-4" x="315.96" y="511.72" width="130" height="146" rx="40" ry="40"/><line class="cls-5" x1="380.96" y1="584.72" x2="481.96" y2="584.72"/><polygon class="cls-1" points="457.44 668.01 602.52 584.26 457.44 500.49 457.44 668.01"/><line class="cls-4" x1="380.96" y1="584.72" x2="481.96" y2="584.72"/><polygon class="cls-2" points="467.07 635.29 555.15 584.44 467.07 533.58 467.07 635.29"/><circle class="cls-3" cx="207.35" cy="242.6" r="134.11" transform="translate(-110.82 217.67) rotate(-45)"/><path class="cls-6" d="M165.87,311.86H106.45c0-34.95,13.31-63.28,29.71-63.28S165.87,276.91,165.87,311.86Z"/><path class="cls-2" d="M165.87,312.36A94.89,94.89,0,0,1,151,315.24c-5,.61-9.9.93-14.86,1.07a74.87,74.87,0,0,1-14.85-.93,142.12,142.12,0,0,0-14.86-1.92l-1.65-.07,0-1.53c.21-6.36.51-12.7,1.08-19.07a124.67,124.67,0,0,1,2.92-19.17,54,54,0,0,1,8.08-18.43,33,33,0,0,1,7.66-7.88,20.58,20.58,0,0,1,11.64-4c.29,0,1.07,0,1.55,0s1.07.09,1.6.17a18,18,0,0,1,3.1.74A22.24,22.24,0,0,1,148,247a29.54,29.54,0,0,1,4.43,3.66,37.93,37.93,0,0,1,3.52,4.17,58.28,58.28,0,0,1,8.51,18.51,88.17,88.17,0,0,1,3,19.34,90.77,90.77,0,0,1-1.1,19.23l-.06.37Zm-.62-1.17c-2.09-12.25-4.77-24.14-9.25-35a61.68,61.68,0,0,0-8.45-15,27.93,27.93,0,0,0-2.67-2.93,19.39,19.39,0,0,0-2.84-2.32,14,14,0,0,0-2.93-1.5,11.53,11.53,0,0,0-1.47-.41c-.24-.05-.49-.09-.73-.12s-.32,0-.82-.06h-.67c-.25,0-.5,0-.75.07a9.28,9.28,0,0,0-1.52.3,12.69,12.69,0,0,0-3.1,1.36,23.23,23.23,0,0,0-5.81,5.2,51.1,51.1,0,0,0-4.82,7.1,81.92,81.92,0,0,0-4.06,8,87.14,87.14,0,0,0-5.72,17.49,79.42,79.42,0,0,0-1.58,18.53l-1.61-1.61a137,137,0,0,0,14.86-1.92,74.86,74.86,0,0,1,14.85-.92c5,.13,9.91.46,14.86,1.06A97.71,97.71,0,0,1,165.25,311.19Z"/><path class="cls-6" d="M161.9,226.77a25.74,25.74,0,1,1-25.74-26A25.89,25.89,0,0,1,161.9,226.77Z"/><path class="cls-2" d="M162.4,226.78a44.7,44.7,0,0,1-1.26,10.38,30.17,30.17,0,0,1-4.45,10.2,22.62,22.62,0,0,1-8.91,7.53A23.22,23.22,0,0,1,136.11,257l-.64-.07-.77-.1c-.5-.07-1-.16-1.46-.25a26.86,26.86,0,0,1-2.83-.78,27.92,27.92,0,0,1-5.22-2.43,36.57,36.57,0,0,1-8.43-7.09,36,36,0,0,1-9.07-19.51,26.77,26.77,0,0,1,1-11.4,27.44,27.44,0,0,1,5.89-10.24,29.66,29.66,0,0,1,9.69-7.19,28.28,28.28,0,0,1,5.83-1.93,25.9,25.9,0,0,1,3-.45c.51-.05,1-.08,1.53-.11l.77,0h.83l1.46.08c.52,0,1,.09,1.53.15a25.33,25.33,0,0,1,3,.56,26.3,26.3,0,0,1,5.72,2.09,23.75,23.75,0,0,1,8.83,7.81,31,31,0,0,1,4.44,10.26,42.84,42.84,0,0,1,1.18,10.42Zm-1,0a18.24,18.24,0,0,0-2.68-9.4,21,21,0,0,0-6.68-6.62,31.7,31.7,0,0,0-7.86-3.55,27.86,27.86,0,0,0-4-.9c-.67-.09-1.35-.14-2-.19l-1,0H136.1a23.31,23.31,0,0,0-14.82,5.65,25.71,25.71,0,0,0-5.2,6.64,25.24,25.24,0,0,0-2.92,8.43,19.64,19.64,0,0,0,.76,9.25,19,19,0,0,0,5.14,7.94,18.19,18.19,0,0,0,8.28,4.27,22.14,22.14,0,0,0,4.47.56c.74,0,1.47,0,2.2,0,.36,0,.73,0,1.08-.06l.49,0,.64-.05a37.45,37.45,0,0,0,8.12-1.91,37,37,0,0,0,7.8-3.83,21.63,21.63,0,0,0,6.65-6.68,17.78,17.78,0,0,0,2.61-9.44Z"/><path class="cls-6" d="M320.71,298.16H261.29c0-34.94,13.3-63.28,29.71-63.28S320.71,263.22,320.71,298.16Z"/><path class="cls-2" d="M320.71,298.66a95.27,95.27,0,0,1-14.86,2.89c-5,.6-9.9.93-14.85,1.06a75,75,0,0,1-14.86-.93,139.62,139.62,0,0,0-14.85-1.91l-1.66-.08.05-1.53c.21-6.36.51-12.7,1.09-19.07a123.61,123.61,0,0,1,2.91-19.17,54.17,54.17,0,0,1,8.08-18.42,32.8,32.8,0,0,1,7.66-7.88,20.66,20.66,0,0,1,11.65-4c.29,0,1.06,0,1.54,0s1.07.1,1.6.17a20.12,20.12,0,0,1,3.11.74,21.85,21.85,0,0,1,5.49,2.67,29.59,29.59,0,0,1,4.43,3.65,39.09,39.09,0,0,1,3.53,4.18,58.23,58.23,0,0,1,8.51,18.5,88.76,88.76,0,0,1,3,19.35,91.33,91.33,0,0,1-1.1,19.22l-.07.37Zm-.63-1.16c-2.08-12.25-4.77-24.15-9.24-35a62,62,0,0,0-8.45-15,27.9,27.9,0,0,0-2.67-2.92,19.54,19.54,0,0,0-2.85-2.33,14,14,0,0,0-2.93-1.5,10,10,0,0,0-1.47-.4c-.24-.05-.49-.09-.73-.12s-.32-.05-.81-.07h-.68q-.37,0-.75.06a10.47,10.47,0,0,0-1.52.3,13.49,13.49,0,0,0-3.1,1.37,23.54,23.54,0,0,0-5.81,5.19,50.62,50.62,0,0,0-4.82,7.11,81.74,81.74,0,0,0-4.06,8,86.69,86.69,0,0,0-5.71,17.49,80,80,0,0,0-1.59,18.53l-1.6-1.6a142.28,142.28,0,0,0,14.85-1.92,75,75,0,0,1,14.86-.93c4.95.13,9.9.46,14.85,1.06A96.18,96.18,0,0,1,320.08,297.5Z"/><path class="cls-6" d="M316.74,213.08a25.74,25.74,0,1,1-25.74-26A25.89,25.89,0,0,1,316.74,213.08Z"/><path class="cls-2" d="M317.24,213.08A45.35,45.35,0,0,1,316,223.47a30,30,0,0,1-4.45,10.19,22.5,22.5,0,0,1-8.9,7.53,23.15,23.15,0,0,1-11.68,2.08l-.63-.06-.78-.11c-.49-.07-1-.15-1.45-.25a22.76,22.76,0,0,1-2.83-.78,27.59,27.59,0,0,1-5.22-2.42,37.07,37.07,0,0,1-8.43-7.09A36.07,36.07,0,0,1,262.52,213a26.69,26.69,0,0,1,6.86-21.63,29.48,29.48,0,0,1,9.68-7.19,27.13,27.13,0,0,1,5.83-1.93,24,24,0,0,1,3-.46c.51-.05,1-.08,1.53-.11l.77,0h.84l1.45.07c.52,0,1,.09,1.53.15a25.33,25.33,0,0,1,3,.56,26.44,26.44,0,0,1,5.72,2.09,24,24,0,0,1,8.84,7.81,30.86,30.86,0,0,1,4.43,10.26,42.93,42.93,0,0,1,1.19,10.43Zm-1,0a18.28,18.28,0,0,0-2.69-9.41,21.06,21.06,0,0,0-6.67-6.62,31.56,31.56,0,0,0-7.87-3.54,25.38,25.38,0,0,0-4-.9c-.67-.09-1.34-.15-2-.2l-1,0h-1.08A23.25,23.25,0,0,0,276.12,198,26.11,26.11,0,0,0,268,213.11a19.71,19.71,0,0,0,.75,9.24,18.89,18.89,0,0,0,5.15,7.94,18.1,18.1,0,0,0,8.27,4.27,22.25,22.25,0,0,0,4.48.57c.74,0,1.47,0,2.19,0,.36,0,.73,0,1.08-.07l.49-.05.64,0a36.19,36.19,0,0,0,8.12-1.91,36.81,36.81,0,0,0,7.8-3.83,21.66,21.66,0,0,0,6.66-6.68,17.88,17.88,0,0,0,2.61-9.44Z"/><path class="cls-6" d="M246.76,325.78H187.35c0-34.95,13.3-63.28,29.7-63.28S246.76,290.83,246.76,325.78Z"/><path class="cls-2" d="M246.76,326.28a94.89,94.89,0,0,1-14.85,2.88c-4.95.6-9.9.93-14.86,1.07a74.87,74.87,0,0,1-14.85-.93,139.65,139.65,0,0,0-14.85-1.92l-1.66-.07.05-1.53c.21-6.36.51-12.7,1.08-19.07a124.48,124.48,0,0,1,2.92-19.17,54.21,54.21,0,0,1,8.08-18.43,32.79,32.79,0,0,1,7.66-7.88,20.58,20.58,0,0,1,11.64-4c.3,0,1.07,0,1.55,0s1.07.09,1.6.17a18.9,18.9,0,0,1,3.1.73,22.63,22.63,0,0,1,5.5,2.67,29.54,29.54,0,0,1,4.43,3.66,37.93,37.93,0,0,1,3.52,4.17,58.28,58.28,0,0,1,8.51,18.51,87.58,87.58,0,0,1,3,19.34,90.77,90.77,0,0,1-1.1,19.23l-.06.37Zm-.62-1.17c-2.08-12.25-4.77-24.14-9.25-35a61.62,61.62,0,0,0-8.45-15,27,27,0,0,0-2.67-2.93,19.39,19.39,0,0,0-2.84-2.32,13.56,13.56,0,0,0-2.93-1.5,11.53,11.53,0,0,0-1.47-.41c-.24-.05-.49-.09-.73-.12a6.47,6.47,0,0,0-.82-.06h-.67c-.25,0-.5,0-.75.07a9.28,9.28,0,0,0-1.52.3,12.85,12.85,0,0,0-3.1,1.36,23.41,23.41,0,0,0-5.81,5.2,51.1,51.1,0,0,0-4.82,7.1,81.92,81.92,0,0,0-4.06,8,87.14,87.14,0,0,0-5.72,17.49A79.37,79.37,0,0,0,189,325.78l-1.6-1.61a137.12,137.12,0,0,0,14.85-1.92,74.12,74.12,0,0,1,14.85-.92c5,.13,9.91.46,14.86,1.06A97.71,97.71,0,0,1,246.14,325.11Z"/><path class="cls-6" d="M242.79,240.69a25.74,25.74,0,1,1-25.74-26A25.88,25.88,0,0,1,242.79,240.69Z"/><path class="cls-2" d="M243.29,240.7A44.77,44.77,0,0,1,242,251.08a30.17,30.17,0,0,1-4.45,10.2,22.52,22.52,0,0,1-8.91,7.52A23,23,0,0,1,217,270.88l-.63-.06-.78-.1c-.5-.08-1-.16-1.46-.26a22.61,22.61,0,0,1-2.82-.78,27.07,27.07,0,0,1-5.23-2.42,36.82,36.82,0,0,1-8.43-7.09,36,36,0,0,1-9.07-19.52,26.9,26.9,0,0,1,1-11.39,27.33,27.33,0,0,1,5.9-10.24,29.51,29.51,0,0,1,9.68-7.19A27.69,27.69,0,0,1,211,209.9a25.9,25.9,0,0,1,3-.45c.51,0,1-.09,1.53-.11l.77,0h.83l1.46.08c.52,0,1,.09,1.53.15a23.47,23.47,0,0,1,3,.56,26.27,26.27,0,0,1,5.72,2.08,23.86,23.86,0,0,1,8.83,7.82,31,31,0,0,1,4.44,10.26,42.84,42.84,0,0,1,1.18,10.42Zm-1,0a18.3,18.3,0,0,0-2.68-9.41,21,21,0,0,0-6.67-6.61,31.4,31.4,0,0,0-7.87-3.55,25.38,25.38,0,0,0-4-.9c-.67-.09-1.35-.14-2-.19l-1,0H217a23.31,23.31,0,0,0-14.82,5.65,25.76,25.76,0,0,0-5.2,6.64,25.24,25.24,0,0,0-2.92,8.43,19.64,19.64,0,0,0,.76,9.25,19.09,19.09,0,0,0,5.14,7.94,18.28,18.28,0,0,0,8.28,4.27,22.14,22.14,0,0,0,4.47.56c.74,0,1.47,0,2.2,0,.36,0,.73,0,1.08-.06l.49-.06.64,0A37.5,37.5,0,0,0,233,256.8a21.73,21.73,0,0,0,6.66-6.67,17.9,17.9,0,0,0,2.6-9.45Z"/></g></svg>