<?xml version="1.0" encoding="utf-8"?>
<!-- Generator: Adobe Illustrator 15.0.2, SVG Export Plug-In . SVG Version: 6.00 Build 0)  -->
<!DOCTYPE svg PUBLIC "-//W3C//DTD SVG 1.1//EN" "http://www.w3.org/Graphics/SVG/1.1/DTD/svg11.dtd">
<svg version="1.1" id="Calque_1" xmlns="http://www.w3.org/2000/svg" xmlns:xlink="http://www.w3.org/1999/xlink" x="0px" y="0px"
	 width="696.691px" height="1541.691px" viewBox="0 0 696.691 1541.691" enable-background="new 0 0 696.691 1541.691"
	 xml:space="preserve">
<g id="Calque_2">
</g>
<g id="Calque_4">
	<g>
		<g>
			<path fill="#C866A5" d="M496.619,1051.72c8.982-6.312,17.354-13.473,24.95-21.362c15.179-15.787,27.344-34.399,35.525-54.633
				c8.209-20.215,12.427-42.014,12.41-63.796c0.043-21.79-4.152-43.595-12.352-63.823c-8.173-20.245-20.337-38.874-35.521-54.672
				c-7.598-7.896-15.973-15.061-24.959-21.38c-8.973-6.34-18.573-11.824-28.63-16.339c-11.503-5.174-23.603-9.062-36.004-11.601
				c12.385-2.526,24.474-6.404,35.962-11.568c10.051-4.51,19.647-9.987,28.617-16.321c8.982-6.313,17.354-13.473,24.949-21.362
				c15.179-15.787,27.345-34.399,35.525-54.633c8.209-20.215,12.427-42.014,12.41-63.796c0.043-21.79-4.152-43.595-12.352-63.823
				c-8.173-20.245-20.337-38.873-35.521-54.672c-7.598-7.896-15.972-15.061-24.958-21.381c-8.973-6.34-18.574-11.822-28.629-16.339
				c-20.11-9.044-42.038-14.182-64.224-14.991c-2.801-0.104-5.499-0.124-8.214-0.173l-8.145-0.132l-16.29-0.264l-32.579-0.451
				l-32.579-0.409l-32.579-0.287c-4.214-0.029-8.428-0.041-12.643-0.067c4.136-1.485,8.215-3.122,12.219-4.922
				c10.051-4.51,19.646-9.987,28.616-16.321c8.983-6.314,17.354-13.473,24.95-21.363c15.178-15.787,27.344-34.399,35.525-54.632
				c8.209-20.215,12.428-42.014,12.41-63.796c0.043-21.79-4.151-43.595-12.352-63.823c-8.171-20.246-20.336-38.873-35.521-54.672
				c-7.597-7.896-15.972-15.06-24.959-21.379c-8.973-6.34-18.573-11.823-28.629-16.339c-20.11-9.043-42.038-14.182-64.224-14.99
				c-2.801-0.104-5.499-0.124-8.213-0.173l-8.145-0.132l-16.29-0.264L143.6,70.188l-32.579-0.409l-32.579-0.287
				c-43.438-0.298-86.877-0.447-130.316-0.545c-43.438-0.059-86.877-0.061-130.315,0.127l-65.158,0.243l-65.267,0.348
				c-22.363,0.558-44.634,5.409-65.112,14.369c-20.48,8.936-39.216,21.825-54.73,37.834c-7.77,7.987-14.762,16.72-20.843,26.038
				c-6.065,9.329-11.206,19.246-15.331,29.558c-8.269,20.622-12.351,42.843-12.089,64.946c0.213,22.111,4.823,44.119,13.403,64.404
				c4.289,10.145,9.581,19.85,15.742,28.953c6.139,9.119,13.161,17.634,20.928,25.394c15.55,15.498,33.988,28.096,54.181,36.688
				c10.091,4.294,20.58,7.657,31.299,9.981c10.722,2.312,21.654,3.631,32.63,3.9l65.19,0.523l65.158,0.779l11.912,0.157
				c-4.215,1.459-8.374,3.075-12.46,4.863c-20.479,8.937-39.216,21.826-54.73,37.834c-7.769,7.988-14.761,16.722-20.842,26.039
				c-6.065,9.329-11.207,19.246-15.331,29.559c-8.269,20.612-12.352,42.861-12.089,64.928c0.213,22.147,4.822,44.129,13.402,64.423
				c4.289,10.145,9.581,19.851,15.742,28.953c6.139,9.119,13.161,17.634,20.928,25.395c15.55,15.498,33.987,28.097,54.181,36.688
				c10.091,4.295,20.579,7.657,31.298,9.981c0.982,0.213,1.969,0.406,2.955,0.603c-12.196,2.409-24.132,6.115-35.513,11.096
				c-20.48,8.936-39.216,21.825-54.73,37.834c-7.77,7.987-14.762,16.72-20.843,26.038c-6.065,9.329-11.206,19.246-15.33,29.56
				c-8.269,20.622-12.352,42.843-12.089,64.945c0.213,22.11,4.823,44.118,13.402,64.404c4.289,10.144,9.581,19.85,15.743,28.952
				c6.138,9.119,13.161,17.635,20.928,25.395c15.549,15.498,33.987,28.098,54.18,36.689c10.091,4.294,20.58,7.656,31.298,9.98
				c0.825,0.178,1.653,0.339,2.481,0.505c-12.032,2.412-23.807,6.082-35.041,10.998c-20.479,8.937-39.216,21.825-54.73,37.834
				c-7.769,7.988-14.761,16.721-20.842,26.039c-6.065,9.328-11.207,19.246-15.331,29.559c-8.269,20.622-12.351,42.843-12.089,64.945
				c0.213,22.111,4.823,44.119,13.403,64.404c4.289,10.146,9.581,19.851,15.742,28.953c6.139,9.119,13.161,17.634,20.928,25.396
				c15.55,15.496,33.987,28.096,54.181,36.688c10.091,4.295,20.579,7.657,31.298,9.982c10.723,2.312,21.654,3.631,32.63,3.899
				l65.191,0.523l65.158,0.778l65.158,0.86l65.158,0.683c43.438,0.338,86.877,0.479,130.316,0.298l32.579-0.181l32.579-0.301
				l32.579-0.412l16.29-0.239l8.146-0.12c2.704-0.045,5.429-0.061,8.218-0.16c22.151-0.788,44.081-5.904,64.177-14.938
				c10.051-4.511,19.647-9.988,28.616-16.322c8.983-6.313,17.354-13.474,24.95-21.362c15.178-15.788,27.344-34.4,35.524-54.634
				c8.209-20.215,12.428-42.014,12.41-63.796c0.043-21.79-4.151-43.595-12.352-63.824c-8.172-20.244-20.337-38.873-35.521-54.671
				c-7.597-7.896-15.972-15.061-24.958-21.38c-8.973-6.34-18.574-11.824-28.63-16.339c-11.35-5.104-23.279-8.963-35.506-11.503
				c12.212-2.529,24.13-6.377,35.465-11.472C478.054,1063.532,487.65,1058.054,496.619,1051.72z"/>
		</g>
		<g>
			<path fill="#A82980" d="M495.752,1050.495c26.996-18.901,48.254-45.861,60.245-76.517c6.031-15.3,9.704-31.515,10.997-47.885
				c1.246-16.373,0.157-32.932-3.384-48.932c-6.979-32.044-23.82-61.69-47.306-84.258c-11.736-11.27-25.102-20.851-39.504-28.287
				c-3.599-1.853-7.286-3.583-10.984-5.156c-1.947-0.833-3.728-1.546-5.642-2.284c-1.891-0.72-3.789-1.418-5.704-2.065
				c-7.649-2.625-15.488-4.67-23.419-6.167l0.003-9.661c12.684-2.822,24.94-7.109,36.607-12.795
				c11.564-5.629,22.48-12.676,32.457-20.82c19.926-16.25,35.877-37.216,46.242-60.482c10.391-23.273,15.067-48.892,13.715-74.141
				c-0.631-12.602-2.753-25.111-6.298-37.166c-1.766-6.018-3.91-11.964-6.357-17.671c-2.483-5.837-5.258-11.396-8.378-16.846
				c-6.231-10.86-13.736-20.983-22.271-30.104c-4.269-4.57-8.758-8.861-13.517-12.898c-2.376-2.014-4.807-3.963-7.295-5.835
				c-1.247-0.934-2.499-1.858-3.771-2.756l-1.914-1.337l-2.005-1.364c-1.236-0.817-2.532-1.668-3.857-2.495
				c-1.312-0.83-2.646-1.63-3.983-2.42c-2.677-1.577-5.403-3.065-8.167-4.481c-5.522-2.816-11.22-5.342-17.019-7.51
				c-11.612-4.342-23.729-7.329-36.002-8.903c-3.068-0.396-6.148-0.694-9.231-0.908c-1.542-0.111-3.085-0.187-4.628-0.254
				l-2.271-0.075l-2.442-0.05l-19.9-0.181l-40.034-0.332l-39.997-0.313l-40.03-0.209l-4.475-26.189
				c3.775-1.37,7.491-2.856,11.12-4.489l2.769-1.277l2.666-1.287c1.792-0.888,3.566-1.813,5.325-2.767
				c7.046-3.828,13.728-8.173,20.18-13.021c12.793-9.644,24.065-21.218,33.441-34.247c4.676-6.511,8.876-13.359,12.529-20.48
				c3.646-7.109,6.736-14.539,9.274-22.126c5.064-15.187,7.785-31.202,8.015-47.24c0.263-16.103-1.866-32.182-6.445-47.621
				c-4.572-15.406-11.518-30.165-20.537-43.578c-4.511-6.709-9.532-13.09-15.002-19.066c-5.461-5.952-11.378-11.521-17.696-16.611
				c-12.674-10.239-26.805-18.491-41.956-24.524c-15.131-6.021-31.235-9.747-47.548-10.992l-3.061-0.201l-1.522-0.08l-1.61-0.07
				l-6.383-0.203l-13.028-0.397l-26.034-0.759l-52.07-1.431l-52.1-1.161c-69.474-1.376-138.973-2.362-208.457-2.784
				c-34.733-0.13-69.513-0.27-104.246-0.226l-52.129,0.098c-16.97-0.104-33.872,2.476-50.059,7.427
				c-32.337,9.984-61.576,29.928-82.339,56.665c-10.447,13.307-18.772,28.192-24.677,44.045
				c-5.87,15.796-9.255,32.548-10.056,49.379c-1.644,33.688,7.377,67.763,25.569,95.977c4.531,7.06,9.576,13.819,15.099,20.104
				c2.75,3.14,5.669,6.219,8.617,9.091l2.302,2.197l2.304,2.12c1.551,1.408,3.135,2.779,4.739,4.125
				c12.834,10.76,27.239,19.621,42.629,25.989c15.44,6.406,31.745,10.453,48.32,11.991c4.14,0.384,8.29,0.623,12.44,0.694
				l0.778,0.015h0.675l1.629-0.006l3.259-0.014l6.517-0.025l26.066-0.104l26.066-0.122l26.1-0.026l52.145-0.031l2.98,18.463
				c-4.147,1.499-8.237,3.163-12.197,4.979c-4.055,1.849-7.941,3.823-11.8,5.964c-7.68,4.285-15.02,9.169-21.893,14.617
				c-6.895,5.455-13.261,11.409-19.192,17.941c-5.871,6.448-11.247,13.421-16.004,20.735c-9.463,14.622-16.541,30.842-20.775,47.671
				c-4.244,16.871-5.646,34.376-4.271,51.675c1.383,17.261,5.647,34.28,12.501,50.121c3.423,7.91,7.5,15.546,12.184,22.792
				c0.581,0.908,1.18,1.805,1.781,2.7l1.885,2.741c1.193,1.696,2.478,3.451,3.785,5.162c2.612,3.428,5.38,6.735,8.262,9.938
				c11.547,12.761,25.2,23.729,40.156,32.197c7.497,4.248,15.253,7.814,23.373,10.788c8.083,2.956,16.388,5.303,24.801,6.897
				l-0.007,26.748c-35.453,7.109-68.182,26.787-90.951,54.691c-2.861,3.477-5.57,7.074-8.118,10.78
				c-0.641,0.924-1.264,1.859-1.882,2.798l-0.872,1.343l-0.979,1.546c-1.105,1.773-2.304,3.788-3.394,5.718
				c-4.426,7.815-8.163,16.014-11.175,24.465c-6.005,16.87-9.032,34.84-8.931,52.735c0.071,17.939,3.276,35.788,9.405,52.589
				c3.057,8.397,6.849,16.495,11.321,24.228c1.119,1.933,2.278,3.841,3.478,5.725l1.829,2.806l1.947,2.854
				c1.229,1.76,2.552,3.576,3.904,5.352s2.743,3.521,4.169,5.235c11.41,13.689,25.262,25.465,40.57,34.609
				c7.672,4.579,15.654,8.438,24.018,11.627c8.347,3.181,16.957,5.689,25.663,7.384l-0.002,31.083
				c-7.055,1.448-14.005,3.357-20.771,5.745c-3.384,1.189-6.727,2.483-10.01,3.906l-2.541,1.118l-2.385,1.104
				c-1.628,0.761-3.235,1.564-4.836,2.381c-12.784,6.573-24.677,14.894-35.149,24.663c-1.306,1.225-2.601,2.461-3.86,3.729
				l-1.842,1.872l-1.947,2.05c-2.387,2.548-4.794,5.312-7.047,8.076c-4.526,5.558-8.701,11.465-12.372,17.552
				c-7.427,12.25-13.156,25.554-16.894,39.354c-3.747,13.809-5.576,28.207-5.387,42.483c0.158,14.414,2.37,28.649,6.458,42.418
				c4.093,13.75,10.126,26.863,17.885,38.953c7.762,12.166,17.123,23.146,27.904,32.705c10.778,9.57,22.833,17.703,35.739,23.994
				c12.92,6.273,26.817,10.837,40.976,13.371c7.114,1.28,14.311,2.085,21.521,2.391l1.352,0.049l0.338,0.014
				c0.003,0.001,0.47,0.014,0.093,0.007l0.742,0.009l2.968,0.039l5.936,0.076l11.872,0.152l47.544,0.663l47.482,0.921l47.498,1.071
				l94.924,2.197c31.57,0.729,63.227,1.301,94.841,1.856l47.434,0.686l23.708,0.299l23.748,0.217l47.447,0.329l23.627,0.09
				c7.532-0.062,15.065-0.646,22.538-1.756c14.947-2.217,29.616-6.485,43.464-12.753c13.812-6.237,26.854-14.453,38.533-24.284
				c11.677-9.827,21.999-21.34,30.617-34.045c4.293-6.36,8.151-13.024,11.527-19.932c1.694-3.462,3.245-6.945,4.706-10.554
				c1.437-3.534,2.761-7.178,3.95-10.834c4.786-14.652,7.424-30.036,7.935-45.502c0.53-15.484-1.105-31.054-4.942-46.113
				c-1.909-7.537-4.341-14.915-7.3-22.144c-2.938-7.175-6.395-14.193-10.333-20.913c-7.895-13.438-17.643-25.836-28.93-36.637
				c-11.288-10.8-24.108-20.042-37.933-27.385c-13.853-7.331-28.704-12.705-44.053-15.953l0.001-3.246
				c11.375-2.326,22.522-5.797,33.19-10.395c5.352-2.312,10.535-4.878,15.615-7.723C486.077,1056.936,491,1053.838,495.752,1050.495
				z M497.483,1052.946c-4.826,3.416-9.828,6.584-14.979,9.489c-5.14,2.899-10.47,5.557-15.874,7.909
				c-10.845,4.73-22.173,8.353-33.756,10.791l0.001-3.245c15.652,3.184,30.906,8.541,45.12,15.863
				c14.229,7.331,27.442,16.62,39.219,27.506c11.746,10.922,22.009,23.441,30.407,37.147c4.205,6.854,7.941,13.979,11.168,21.386
				c3.21,7.352,5.927,14.983,8.082,22.746c4.309,15.535,6.476,31.707,6.389,47.876c-0.055,16.188-2.426,32.381-6.93,47.995
				c-1.133,3.909-2.388,7.755-3.807,11.604c-1.388,3.775-2.933,7.582-4.6,11.286c-3.335,7.432-7.196,14.631-11.536,21.538
				c-8.666,13.816-19.221,26.502-31.384,37.512c-12.168,10.99-25.796,20.381-40.577,27.741
				c-14.734,7.354-30.564,12.648-46.833,15.711c-8.136,1.532-16.396,2.498-24.687,2.892l-23.856,0.835l-47.525,1.513l-23.74,0.655
				l-23.78,0.572c-15.85,0.402-31.697,0.673-47.546,0.955c-31.706,0.568-63.369,0.854-95.116,1.075l-47.494,0.1l-11.873,0.024
				l-11.911-0.012l-23.746-0.077l-94.965-0.362l-47.432-0.13l-11.873-0.038l-5.936-0.019l-2.968-0.011l-0.742-0.003l-1.052-0.021
				l-1.615-0.044c-8.609-0.28-17.19-1.156-25.67-2.599c-8.471-1.432-16.929-3.483-25.124-6.076
				c-8.222-2.604-16.225-5.732-24.063-9.452c-15.63-7.428-30.16-17.031-43.117-28.411c-12.99-11.354-24.449-24.627-33.807-39.094
				c-9.414-14.51-16.811-30.409-21.82-46.983c-5.026-16.55-7.73-33.903-7.956-51.149c-0.259-17.379,1.885-34.701,6.441-51.445
				c4.545-16.757,11.464-32.816,20.455-47.636c4.534-7.451,9.545-14.481,15.035-21.184c2.76-3.359,5.562-6.562,8.597-9.781
				l2.148-2.247c0.838-0.853,1.536-1.576,2.327-2.353c1.534-1.534,3.105-3.028,4.692-4.505
				c12.721-11.784,27.055-21.729,42.449-29.583c1.928-0.977,3.864-1.936,5.824-2.845l3.01-1.376l2.896-1.264
				c3.987-1.708,8.032-3.267,12.123-4.679c8.184-2.823,16.548-5.059,25.012-6.734l-0.002,31.083
				c-10.54-2.132-20.814-5.207-30.775-9.08c-9.945-3.868-19.663-8.646-28.798-14.189c-18.299-11.104-34.678-25.229-48.232-41.82
				c-1.691-2.072-3.337-4.18-4.938-6.322c-1.601-2.142-3.147-4.304-4.703-6.582l-2.168-3.244c-0.729-1.12-1.452-2.243-2.158-3.378
				c-1.415-2.268-2.781-4.564-4.099-6.892c-5.266-9.301-9.734-19.085-13.294-29.158c-7.135-20.131-10.765-41.521-10.617-62.825
				c0.107-21.347,3.921-42.616,11.284-62.646c3.678-9.992,8.214-19.668,13.553-28.871c1.349-2.325,2.678-4.518,4.192-6.889
				l1.006-1.552l1.15-1.732c0.743-1.102,1.492-2.199,2.259-3.283c3.056-4.347,6.298-8.56,9.714-12.623
				c1.707-2.033,3.456-4.029,5.246-5.988l1.352-1.462l1.416-1.497l2.714-2.782c3.75-3.777,7.66-7.389,11.72-10.812
				c8.114-6.856,16.807-12.998,25.946-18.361c9.157-5.374,18.695-9.938,28.641-13.699c9.929-3.746,20.157-6.62,30.54-8.623
				l-0.006,26.748c-9.887-1.988-19.558-4.825-28.944-8.378c-9.349-3.544-18.54-7.899-27.204-12.953
				c-17.363-10.13-33.037-22.968-46.281-38.062c-3.299-3.776-6.458-7.676-9.438-11.709c-1.492-2.016-2.933-4.044-4.388-6.184
				l-2.028-3.052c-0.683-1.05-1.361-2.103-2.021-3.167c-5.309-8.497-9.911-17.436-13.75-26.696
				c-7.647-18.518-12.173-38.254-13.412-58.191c-1.242-19.9,0.839-40.021,6.097-59.214c5.26-19.234,13.732-37.468,24.94-53.88
				c5.61-8.183,11.842-15.878,18.699-23.056c6.776-7.113,14.232-13.767,22.11-19.688c7.885-5.946,16.251-11.226,24.966-15.815
				c4.35-2.278,8.834-4.424,13.316-6.324c4.567-1.954,9.167-3.687,13.829-5.238l2.98,18.463l-52.106-1.308l-26.025-0.642
				l-26.061-0.54l-26.061-0.521l-6.516-0.131l-3.258-0.065l-1.629-0.032l-0.953-0.025l-0.851-0.035
				c-4.534-0.188-9.057-0.559-13.558-1.085c-17.99-2.103-35.679-6.957-52.17-14.275c-16.556-7.329-31.907-17.183-45.452-29.042
				c-1.693-1.482-3.363-2.99-4.998-4.536l-2.442-2.344l-2.363-2.352c-3.205-3.263-6.209-6.549-9.126-9.995
				c-5.824-6.876-11.074-14.174-15.794-21.823c-9.43-15.302-16.47-32.062-20.833-49.448c-2.179-8.696-3.694-17.554-4.524-26.474
				c-0.417-4.474-0.653-8.903-0.728-13.445c-0.062-4.391,0.007-8.931,0.272-13.379c1.04-17.87,4.798-35.548,11.208-52.268
				c6.362-16.661,15.275-32.424,26.388-46.379c11.094-13.967,24.257-26.309,38.995-36.36c14.727-10.057,30.948-17.909,48.002-23.151
				c17.03-5.246,34.877-7.958,52.661-7.951l52.128-0.457l104.27-1.009l208.577-2.019l52.156-0.355l52.178-0.088l26.089,0.013
				l13.034,0.024l6.647,0.023l1.647,0.025l1.733,0.041l3.447,0.127c18.376,0.875,36.634,4.538,53.988,10.871
				c17.341,6.31,33.769,15.419,48.423,26.649c7.354,5.634,14.309,11.813,20.729,18.541c6.409,6.705,12.32,13.893,17.671,21.49
				c10.715,15.192,19.111,32.07,24.698,49.901c5.588,17.796,8.469,36.519,8.362,55.168c-0.053,18.714-2.999,37.402-8.719,55.253
				c-5.727,17.824-14.272,34.805-25.144,50.027c-5.433,7.628-11.425,14.832-17.951,21.571c-6.537,6.73-13.582,12.952-21.053,18.603
				c-7.42,5.614-15.354,10.756-23.586,15.207c-2.062,1.114-4.142,2.195-6.244,3.233l-3.205,1.541l-3.15,1.446
				c-4.298,1.923-8.654,3.672-13.055,5.238l-4.476-26.189l40.097,0.409l40.127,0.66c13.366,0.276,26.676,0.484,40.088,0.823
				l20.157,0.479l2.564,0.09l2.732,0.134c1.791,0.109,3.581,0.23,5.367,0.392c3.573,0.312,7.138,0.722,10.683,1.244
				c14.187,2.062,28.106,5.798,41.403,11.1c6.658,2.646,13.131,5.68,19.416,9.1c3.139,1.71,6.23,3.501,9.262,5.391
				c1.514,0.946,3.021,1.904,4.505,2.896c1.482,0.979,2.956,1.995,4.476,3.062l2.099,1.507l2.151,1.586
				c1.431,1.062,2.837,2.158,4.236,3.262c2.792,2.214,5.517,4.514,8.176,6.885c5.304,4.743,10.376,9.81,15.064,15.146
				c9.397,10.672,17.555,22.405,24.243,34.922c3.333,6.244,6.336,12.75,8.877,19.288c2.592,6.661,4.753,13.38,6.518,20.243
				c3.523,13.702,5.42,27.786,5.64,41.881c0.459,28.146-5.825,56.322-18.172,81.402c-12.33,25.092-30.476,47.11-52.58,63.848
				c-11.028,8.35-22.969,15.462-35.644,21.063c-12.557,5.571-25.854,9.656-39.339,12.181l0.003-9.661
				c16.7,3.693,32.772,9.77,47.67,18.06c14.87,8.274,28.524,18.611,40.42,30.696c11.861,12.104,22.003,25.833,29.97,40.728
				c7.974,14.893,13.694,30.943,17.028,47.447c6.671,33.019,3.534,67.858-9.024,98.999c-12.502,31.13-34.157,58.501-61.604,77.729
				L497.483,1052.946z"/>
		</g>
	</g>
	<rect x="-650" y="-40.348" fill="#FFFFFF" width="650" height="1580.005"/>
</g>
<g id="Calque_1_1_">
	<circle fill="none" stroke="#FFFFFF" stroke-width="10" cx="202.594" cy="238.683" r="134.11"/>
	<g>
		<ellipse fill="#FFFFFF" cx="206.571" cy="253.042" rx="47.416" ry="34.22"/>
		<path fill="#A82980" d="M254.487,253.051c-0.017,5.474-1.585,10.935-4.331,15.83c-2.725,4.916-6.56,9.336-11.114,12.893
			c-4.558,3.555-9.837,6.213-15.395,7.788c-5.574,1.594-11.328,2.186-17.115,1.87c-5.643-0.308-11.324-1.589-16.621-3.49
			c-5.321-1.909-10.336-4.459-14.985-7.51c-4.632-3.067-8.918-6.743-12.287-11.316c-1.676-2.282-3.132-4.778-4.217-7.481
			c-1.059-2.728-1.793-5.56-2.004-8.642c-0.456-5.867,1.097-12.205,4.3-17.342c3.131-5.235,7.659-9.387,12.575-12.649
			c4.935-3.283,10.38-5.652,16.003-7.247c5.645-1.631,11.424-2.321,17.324-2.273c5.706,0.094,11.591,0.923,17.132,2.642
			c5.562,1.716,10.811,4.481,15.361,8.074c4.549,3.593,8.383,8.03,11.111,12.96c2.747,4.915,4.299,10.394,4.262,15.886
			L254.487,253.051L254.487,253.051z M253.487,253.042c-0.004-5.297-2.121-10.444-5.487-14.364c-3.357-3.967-7.79-6.78-12.377-8.827
			c-4.609-2.061-9.445-3.375-14.293-4.348c-4.876-0.976-9.758-1.425-14.808-1.343c-9.755,0.17-19.797,2.108-28.266,6.885
			c-4.221,2.377-7.959,5.476-10.914,9.137c-1.465,1.842-2.701,3.848-3.664,5.994c-0.951,2.173-1.554,4.42-1.788,6.913
			c-0.46,4.691,0.777,9.847,3.526,14.127c2.717,4.323,6.697,7.898,11.203,10.471c4.511,2.602,9.582,4.132,14.669,4.912
			c5.121,0.792,10.206,0.789,15.318,0.493c4.967-0.327,9.979-1.014,14.823-2.113c4.852-1.113,9.658-2.534,14.26-4.633
			c4.583-2.082,9.015-4.912,12.375-8.894c3.368-3.938,5.469-9.104,5.419-14.419v0.009H253.487z"/>
	</g>
	<g>
		<polygon fill="#FFFFFF" points="205.012,188.439 93.036,221.574 199.292,264.991 313.548,213.576 		"/>
		<path fill="#A82980" d="M205.031,188.967c-9.013,3.682-18.118,7.054-27.259,10.305l-6.887,2.447l-6.912,2.362
			c-4.611,1.564-9.215,3.155-13.845,4.655c-9.249,3.038-18.527,5.98-27.836,8.817c-9.297,2.878-18.647,5.576-28.07,8.028
			l0.395-7.877c4.366,1.96,8.708,3.977,13.052,5.989l12.992,6.138c8.659,4.097,17.342,8.135,26.122,11.937
			c8.774,3.814,17.663,7.35,26.571,10.839c8.924,3.448,17.905,6.758,26.931,9.956l-2.068,0.036l13.987-7.082
			c4.657-2.371,9.323-4.724,14.014-7.022c9.366-4.63,18.814-9.078,28.251-13.549l28.35-13.33
			c9.476-4.385,18.983-8.701,28.562-12.857l0.977,9.964c-9.022-2.191-18.025-4.469-27.01-6.818
			c-4.492-1.178-8.995-2.309-13.479-3.524l-13.453-3.637c-8.957-2.476-17.907-4.977-26.828-7.605
			C222.708,194.532,213.843,191.863,205.031,188.967z M205.125,187.952c9.234,1.276,18.415,2.787,27.581,4.357
			c9.168,1.561,18.307,3.249,27.44,4.963l13.681,2.647c4.562,0.879,9.103,1.843,13.656,2.76c9.104,1.84,18.191,3.752,27.258,5.75
			l15.17,3.344l-14.194,6.62c-9.464,4.413-19,8.666-28.566,12.85l-28.778,12.377c-9.605,4.1-19.2,8.221-28.876,12.16
			c-4.831,1.985-9.687,3.918-14.55,5.831l-14.577,5.771l-1.159,0.459l-0.909-0.423c-8.683-4.038-17.412-7.965-26.197-11.752
			c-8.802-3.748-17.623-7.448-26.558-10.87c-8.93-3.435-17.956-6.632-27.007-9.771l-13.572-4.718
			c-4.511-1.604-9.023-3.206-13.512-4.864l-11.039-4.077l11.435-3.8c9.24-3.07,18.552-5.895,27.918-8.539
			c9.354-2.686,18.739-5.266,28.152-7.75c4.701-1.262,9.429-2.432,14.149-3.628l7.085-1.78l7.11-1.694
			c9.48-2.257,18.997-4.394,28.606-6.215l0.13-0.024L205.125,187.952z"/>
	</g>
	<g>
		<path fill="#A82980" d="M101.076,224.858c-1.697,1.898-3.34,3.236-4.438,4.554c-0.547,0.646-0.934,1.228-1.146,1.725
			c-0.212,0.502-0.316,0.897-0.411,1.453c-0.2,1.088-0.14,2.891-0.131,4.989c-0.014,1.052-0.049,2.187-0.244,3.366
			c-0.207,1.17-0.527,2.419-1.29,3.481l-2.074-2.763c-0.635-0.875-1.214-1.771-1.733-2.759c-0.521-0.986-0.95-2.069-1.252-3.299
			c-0.293-1.227-0.433-2.637-0.18-4.165c0.24-1.519,0.959-3.123,2.026-4.292c1.054-1.187,2.323-1.957,3.563-2.41
			C96.273,223.871,98.696,223.934,101.076,224.858z"/>
	</g>
	<g>
		<ellipse fill="#FFFFFF" cx="92.273" cy="271.47" rx="7.236" ry="18.28"/>
		<path fill="#A82980" d="M99.859,271.471c-0.021,1.759,0.074,3.522,0.228,5.34c0.152,1.816,0.362,3.698,0.293,5.637
			c-0.08,1.933-0.422,3.917-1.445,5.854c-0.519,0.965-1.197,1.931-2.238,2.812c-1.041,0.859-2.527,1.684-4.519,1.555l-0.534-0.074
			c-0.256-0.047-0.435-0.094-0.644-0.159c-0.402-0.126-0.777-0.29-1.115-0.479c-0.667-0.393-1.197-0.852-1.608-1.338
			c-0.825-0.971-1.295-1.958-1.66-2.92c-0.7-1.93-1.01-3.759-1.389-5.543c-0.712-3.567-1.422-7.031-2.108-10.696
			c-0.319-1.8-0.564-3.677-0.579-5.558c-0.023-1.887,0.2-3.779,0.586-5.694c0.4-1.916,0.927-3.864,2-5.857
			c0.543-0.998,1.23-2.012,2.311-2.993c1.094-0.946,2.654-1.937,4.954-1.904l0.164,0.012l0.432,0.039
			c0.302,0.039,0.504,0.078,0.75,0.139c0.47,0.114,0.912,0.275,1.313,0.465c0.804,0.377,1.441,0.868,1.959,1.361
			c1.038,0.996,1.681,2.017,2.171,3.024c0.964,2.017,1.229,4.03,1.289,5.976c0.047,1.949-0.172,3.836-0.327,5.654
			C99.985,267.942,99.875,269.708,99.859,271.471z M99.159,271.469c-0.018-1.736-0.319-3.471-0.889-5.125
			c-0.568-1.654-1.409-3.222-2.286-4.646c-0.87-1.422-1.808-2.73-2.627-3.73c-0.407-0.489-0.812-0.898-1.093-1.059
			c-0.139-0.082-0.233-0.088-0.226-0.073c0.002,0.011,0.028,0.032,0.071,0.051c0.033,0.008,0.019,0.016,0.104,0.028
			c0.03,0.008,0.142,0.011,0.105,0.01l-0.164,0.002l0.211,0.01l0.081-0.011c0.048-0.009,0.081-0.021,0.091-0.024
			c0.018-0.008-0.038,0.034-0.158,0.119c-0.237,0.174-0.599,0.589-0.953,1.088c-0.71,1.023-1.386,2.397-1.916,3.849
			c-0.539,1.46-0.938,3.021-1.374,4.607c-0.425,1.595-0.862,3.218-1.183,4.916c-0.67,3.325-0.662,6.886,0.454,10.08
			c0.552,1.583,1.444,3.074,2.528,4.161c0.533,0.536,1.11,0.978,1.604,1.163c0.246,0.09,0.446,0.128,0.577,0.098
			c0.062-0.01,0.104-0.035,0.128-0.063c0.002-0.015,0.042-0.029,0.002-0.05c-0.01-0.011-0.084-0.016-0.044-0.021l0.165-0.015
			c-0.186-0.004-0.051-0.003-0.093-0.005v-0.002v-0.006l-0.001-0.009l-0.002-0.021l-0.004-0.04c-0.001-0.025,0.008-0.041,0.03-0.071
			c0.04-0.067,0.146-0.146,0.281-0.289c0.278-0.274,0.648-0.737,1.027-1.27c0.761-1.08,1.622-2.418,2.471-3.853
			c0.856-1.437,1.688-3.008,2.253-4.665C98.892,274.944,99.178,273.209,99.159,271.469z"/>
	</g>
	<g>
		<ellipse fill="#FFFFFF" cx="91.892" cy="252.047" rx="12.187" ry="9.521"/>
		<path fill="#A82980" d="M104.429,252.059c-0.025,1.466-0.256,2.977-0.756,4.509c-0.493,1.533-1.285,3.104-2.429,4.438
			c-1.142,1.329-2.628,2.38-4.268,2.956c-1.664,0.577-3.34,0.746-5.143,0.524c-0.178-0.028-0.355-0.062-0.533-0.103l-0.647-0.134
			c-0.442-0.115-0.829-0.219-1.233-0.375c-0.796-0.293-1.562-0.639-2.288-1.041c-1.453-0.811-2.748-1.755-3.964-2.736
			c-1.21-0.99-2.353-2.062-3.307-3.381c-0.941-1.336-1.759-2.811-2.07-4.733c-0.33-1.66-0.113-3.75,0.669-5.458
			c0.769-1.753,2.051-3.18,3.468-4.323c1.426-1.146,3.028-2.033,4.725-2.612c0.845-0.298,1.718-0.498,2.595-0.639
			c0.438-0.082,0.881-0.104,1.322-0.137l0.662-0.03l0.331-0.005l0.405,0.008l0.534,0.036l0.69,0.061
			c0.48,0.046,0.887,0.117,1.328,0.213c0.865,0.179,1.72,0.416,2.539,0.759c1.643,0.671,3.105,1.8,4.241,3.155
			c1.14,1.36,1.93,2.943,2.425,4.485c0.499,1.548,0.72,3.062,0.706,4.551v0.012H104.429z M103.729,252.047
			c-0.013-1.368-0.642-2.685-1.621-3.574c-0.978-0.906-2.261-1.376-3.459-1.64c-1.211-0.269-2.376-0.342-3.473-0.462
			c-0.552-0.052-1.097-0.106-1.644-0.122c-0.264-0.01-0.569-0.002-0.8-0.007l-0.913,0.02c-2.013,0.12-4.292,0.419-6.123,1.379
			c-0.922,0.479-1.712,1.104-2.417,1.8c-0.695,0.729-1.33,1.469-1.659,2.667c-0.314,0.935-0.281,2.289,0.256,3.391
			c0.518,1.131,1.449,2.111,2.578,2.744c1.13,0.643,2.462,0.901,3.749,0.882c0.646-0.009,1.278-0.062,1.895-0.161
			c0.301-0.05,0.625-0.092,0.894-0.155l0.42-0.078c0.179-0.032,0.358-0.061,0.537-0.081c1.05-0.231,2.227-0.442,3.305-0.651
			c1.1-0.215,2.241-0.366,3.447-0.661c1.195-0.288,2.476-0.77,3.456-1.686c0.978-0.905,1.599-2.224,1.572-3.615V252.047z"/>
	</g>
	<circle fill="none" stroke="#FFFFFF" stroke-width="10" cx="397.584" cy="574.167" r="134.11"/>
	<g>
		<polygon fill="#FFFFFF" points="410.312,559.41 365.478,667.236 466.148,612.091 498.226,490.976 		"/>
		<path fill="#A82980" d="M410.734,559.729c-2.821,9.317-5.94,18.514-9.177,27.658l-2.439,6.891l-2.521,6.855
			c-1.69,4.566-3.356,9.145-5.109,13.685c-3.471,9.097-7.032,18.153-10.695,27.17c-3.624,9.032-7.421,17.993-11.455,26.854
			l-5.867-5.271c4.273-2.154,8.575-4.256,12.875-6.36l12.952-6.221c8.638-4.143,17.245-8.339,25.729-12.76
			c8.49-4.41,16.837-9.083,25.158-13.803c8.303-4.756,16.53-9.644,24.702-14.638l-1.274,1.629l3.314-15.323
			c1.095-5.109,2.208-10.216,3.378-15.307c2.308-10.189,4.808-20.328,7.283-30.474l7.514-30.412
			c2.567-10.121,5.206-20.225,8.017-30.28l8.352,5.521c-7.387,5.625-14.828,11.18-22.314,16.676
			c-3.745,2.745-7.461,5.528-11.23,8.244l-11.3,8.153c-7.567,5.395-15.148,10.77-22.812,16.038
			C426.194,549.509,418.536,554.711,410.734,559.729z M410.005,559.016c6.811-6.365,13.769-12.542,20.763-18.67
			c6.989-6.136,14.061-12.167,21.146-18.179l10.678-8.954c3.558-2.988,7.167-5.907,10.748-8.864
			c7.165-5.909,14.375-11.761,21.642-17.542l12.155-9.672l-3.805,15.193c-2.536,10.129-5.244,20.213-8.023,30.277l-8.523,30.146
			c-2.87,10.041-5.716,20.088-8.755,30.084c-1.502,5.002-3.062,9.989-4.642,14.972l-4.704,14.956l-0.374,1.188l-0.901,0.439
			c-8.607,4.197-17.156,8.5-25.633,12.936c-8.457,4.474-16.89,8.99-25.177,13.771c-8.293,4.771-16.464,9.765-24.604,14.812
			l-12.215,7.564c-4.088,2.491-8.176,4.985-12.292,7.427l-10.123,6.003l4.256-11.272c3.438-9.109,7.114-18.12,10.962-27.06
			c3.81-8.955,7.72-17.868,11.723-26.742c1.983-4.445,4.055-8.854,6.1-13.272l3.083-6.623l3.165-6.588
			c4.221-8.783,8.56-17.52,13.199-26.129l0.063-0.116L410.005,559.016z"/>
	</g>
	<g>
		<polygon fill="#FFFFFF" points="395.646,550.744 350.812,658.57 451.482,603.425 483.559,482.31 		"/>
		<path fill="#A82980" d="M396.067,551.062c-2.821,9.316-5.94,18.513-9.177,27.657l-2.439,6.891l-2.521,6.855
			c-1.69,4.566-3.356,9.145-5.109,13.685c-3.471,9.097-7.032,18.153-10.695,27.17c-3.624,9.031-7.421,17.993-11.455,26.854
			l-5.867-5.271c4.273-2.154,8.575-4.256,12.875-6.36l12.952-6.221c8.638-4.143,17.245-8.339,25.729-12.76
			c8.49-4.41,16.837-9.083,25.158-13.803c8.303-4.756,16.53-9.644,24.702-14.638l-1.274,1.629l3.314-15.323
			c1.094-5.109,2.208-10.216,3.378-15.307c2.308-10.189,4.808-20.328,7.283-30.474l7.514-30.412
			c2.567-10.121,5.206-20.225,8.017-30.28l8.352,5.521c-7.387,5.625-14.828,11.18-22.314,16.676
			c-3.745,2.745-7.461,5.528-11.23,8.244l-11.3,8.153c-7.567,5.395-15.148,10.77-22.812,16.038
			C411.528,540.843,403.87,546.045,396.067,551.062z M395.339,550.35c6.811-6.365,13.769-12.542,20.763-18.67
			c6.989-6.136,14.061-12.167,21.146-18.179l10.678-8.954c3.558-2.988,7.167-5.907,10.748-8.864
			c7.165-5.909,14.375-11.761,21.642-17.542l12.155-9.672l-3.805,15.193c-2.536,10.129-5.244,20.213-8.023,30.277l-8.523,30.146
			c-2.87,10.041-5.716,20.088-8.755,30.084c-1.502,5.002-3.062,9.989-4.642,14.972l-4.704,14.956l-0.374,1.188l-0.901,0.439
			c-8.607,4.197-17.156,8.5-25.633,12.936c-8.457,4.474-16.89,8.99-25.177,13.771c-8.293,4.771-16.464,9.765-24.604,14.812
			l-12.215,7.564c-4.088,2.491-8.176,4.985-12.292,7.427l-10.123,6.003l4.256-11.272c3.438-9.109,7.114-18.12,10.962-27.06
			c3.81-8.955,7.72-17.868,11.723-26.742c1.983-4.445,4.055-8.854,6.1-13.272l3.083-6.623l3.165-6.588
			c4.221-8.783,8.56-17.52,13.199-26.129l0.063-0.116L395.339,550.35z"/>
	</g>
	<g>
		<polygon fill="#FFFFFF" points="334.979,563.41 290.145,671.236 390.815,616.091 422.892,494.976 		"/>
		<path fill="#A82980" d="M335.4,563.729c-2.821,9.317-5.94,18.514-9.177,27.658l-2.439,6.891l-2.521,6.855
			c-1.69,4.566-3.356,9.145-5.109,13.685c-3.471,9.097-7.032,18.153-10.695,27.17c-3.624,9.032-7.421,17.993-11.455,26.854
			l-5.867-5.271c4.273-2.154,8.575-4.256,12.875-6.36l12.952-6.221c8.638-4.143,17.245-8.339,25.729-12.76
			c8.49-4.41,16.837-9.083,25.158-13.803c8.303-4.756,16.53-9.644,24.702-14.638l-1.274,1.629l3.314-15.323
			c1.095-5.109,2.208-10.216,3.378-15.307c2.308-10.189,4.808-20.328,7.283-30.474l7.514-30.412
			c2.567-10.121,5.206-20.225,8.017-30.28l8.352,5.521c-7.387,5.625-14.828,11.18-22.314,16.676
			c-3.745,2.745-7.461,5.528-11.23,8.244l-11.3,8.153c-7.567,5.395-15.148,10.77-22.812,16.038
			C350.861,553.509,343.203,558.711,335.4,563.729z M334.672,563.016c6.811-6.365,13.769-12.542,20.763-18.67
			c6.989-6.136,14.061-12.167,21.146-18.179l10.678-8.954c3.558-2.988,7.167-5.907,10.748-8.864
			c7.165-5.909,14.375-11.761,21.641-17.542l12.156-9.672l-3.805,15.193c-2.536,10.129-5.244,20.213-8.023,30.277l-8.523,30.146
			c-2.87,10.041-5.716,20.088-8.755,30.084c-1.502,5.002-3.062,9.989-4.642,14.972l-4.704,14.956l-0.374,1.188l-0.901,0.439
			c-8.607,4.197-17.156,8.5-25.633,12.936c-8.457,4.474-16.89,8.99-25.177,13.771c-8.293,4.771-16.464,9.765-24.604,14.812
			l-12.215,7.564c-4.088,2.491-8.175,4.985-12.292,7.427l-10.123,6.003l4.256-11.272c3.438-9.109,7.114-18.12,10.962-27.06
			c3.81-8.955,7.72-17.868,11.723-26.742c1.983-4.445,4.055-8.854,6.1-13.272l3.083-6.623l3.165-6.588
			c4.221-8.783,8.56-17.52,13.2-26.129l0.062-0.116L334.672,563.016z"/>
	</g>
	<text transform="matrix(1 0 0 1 351.0684 651.0166)" fill="#A82980" font-family="'Unkempt-Bold'" font-size="269.0715">?</text>
	
		<text transform="matrix(0.8802 0.4745 -0.4745 0.8802 410.4502 657.4805)" fill="#A82980" font-family="'Unkempt-Bold'" font-size="150.5457">?</text>
	
		<text transform="matrix(0.8675 -0.4974 0.4974 0.8675 345.7861 624.5693)" fill="#A82980" font-family="'Unkempt-Bold'" font-size="108.1654">?</text>
	<circle fill="none" stroke="#FFFFFF" stroke-width="10" cx="397.584" cy="914.167" r="134.11"/>
	<g>
		
			<line fill="none" stroke="#A82980" stroke-width="10" stroke-linecap="round" x1="497.956" y1="964.76" x2="289.956" y2="964.76"/>
	</g>
	<g>
		<rect x="375.956" y="847.76" fill="#A82980" width="45" height="108"/>
	</g>
	<g>
		<rect x="315.956" y="901.76" fill="#FFFFFF" width="45" height="54"/>
	</g>
	<g>
		<rect x="435.956" y="872.76" fill="#FFFFFF" width="45" height="83"/>
	</g>
	<circle fill="none" stroke="#FFFFFF" stroke-width="10" cx="397.584" cy="1251.955" r="134.11"/>
	<g>
		<path fill="none" stroke="#A82980" stroke-width="34" stroke-linecap="round" d="M445.956,1284.955c0,22.092-17.909,40-40,40h-50
			c-22.091,0-40-17.908-40-40v-66c0-22.092,17.909-40,40-40h50c22.091,0,40,17.908,40,40V1284.955z"/>
	</g>
	<g>
		<g>
			
				<line fill="none" stroke="#C866A5" stroke-width="56" stroke-linecap="round" x1="380.956" y1="1251.955" x2="481.956" y2="1251.955"/>
			<g>
				<polygon fill="#C866A5" points="457.445,1335.25 602.517,1251.496 457.445,1167.726 				"/>
			</g>
		</g>
		<g>
			
				<line fill="none" stroke="#A82980" stroke-width="34" stroke-linecap="round" x1="380.956" y1="1251.955" x2="481.956" y2="1251.955"/>
			<g>
				<polygon fill="#A82980" points="467.074,1302.526 555.154,1251.676 467.074,1200.814 				"/>
			</g>
		</g>
	</g>
</g>
</svg>
